<?xml version="1.0" encoding="utf-8" standalone="no"?>
<!DOCTYPE svg PUBLIC "-//W3C//DTD SVG 1.1//EN"
  "http://www.w3.org/Graphics/SVG/1.1/DTD/svg11.dtd">
<!-- Created with matplotlib (https://matplotlib.org/) -->
<svg height="345.6pt" version="1.1" viewBox="0 0 460.8 345.6" width="460.8pt" xmlns="http://www.w3.org/2000/svg" xmlns:xlink="http://www.w3.org/1999/xlink">
 <defs>
  <style type="text/css">
*{stroke-linecap:butt;stroke-linejoin:round;}
  </style>
 </defs>
 <g id="figure_1">
  <g id="patch_1">
   <path d="M 0 345.6 
L 460.8 345.6 
L 460.8 0 
L 0 0 
z
" style="fill:#ffffff;"/>
  </g>
  <g id="axes_1">
   <g id="patch_2">
    <path d="M 57.6 263.808 
L 414.72 263.808 
L 414.72 85.248 
L 57.6 85.248 
z
" style="fill:#ffffff;"/>
   </g>
   <g id="PathCollection_1">
    <defs>
     <path d="M 0 3 
C 0.795609 3 1.55874 2.683901 2.12132 2.12132 
C 2.683901 1.55874 3 0.795609 3 0 
C 3 -0.795609 2.683901 -1.55874 2.12132 -2.12132 
C 1.55874 -2.683901 0.795609 -3 0 -3 
C -0.795609 -3 -1.55874 -2.683901 -2.12132 -2.12132 
C -2.683901 -1.55874 -3 -0.795609 -3 0 
C -3 0.795609 -2.683901 1.55874 -2.12132 2.12132 
C -1.55874 2.683901 -0.795609 3 0 3 
z
" id="m3736094164" style="stroke:#000000;"/>
    </defs>
    <g clip-path="url(#pb103b76543)">
     <use style="stroke:#000000;" x="218.969572" xlink:href="#m3736094164" y="164.826046"/>
    </g>
   </g>
   <g id="patch_3">
    <path clip-path="url(#pb103b76543)" d="M 161.76 211.728 
C 171.625555 211.728 181.088371 207.808373 188.064372 200.832372 
C 195.040373 193.856371 198.96 184.393555 198.96 174.528 
C 198.96 164.662445 195.040373 155.199629 188.064372 148.223628 
C 181.088371 141.247627 171.625555 137.328 161.76 137.328 
C 151.894445 137.328 142.431629 141.247627 135.455628 148.223628 
C 128.479627 155.199629 124.56 164.662445 124.56 174.528 
C 124.56 184.393555 128.479627 193.856371 135.455628 200.832372 
C 142.431629 207.808373 151.894445 211.728 161.76 211.728 
z
" style="fill:#cc0000;fill-opacity:0.1;stroke:#cc0000;stroke-dasharray:7.4,3.2;stroke-dashoffset:0;stroke-linejoin:miter;stroke-width:2;"/>
   </g>
   <g id="patch_4">
    <path clip-path="url(#pb103b76543)" d="M 310.56 196.848 
C 316.479333 196.848 322.157023 194.496224 326.342623 190.310623 
C 330.528224 186.125023 332.88 180.447333 332.88 174.528 
C 332.88 168.608667 330.528224 162.930977 326.342623 158.745377 
C 322.157023 154.559776 316.479333 152.208 310.56 152.208 
C 304.640667 152.208 298.962977 154.559776 294.777377 158.745377 
C 290.591776 162.930977 288.24 168.608667 288.24 174.528 
C 288.24 180.447333 290.591776 186.125023 294.777377 190.310623 
C 298.962977 194.496224 304.640667 196.848 310.56 196.848 
z
" style="fill:#cc0000;fill-opacity:0.1;stroke:#cc0000;stroke-dasharray:7.4,3.2;stroke-dashoffset:0;stroke-linejoin:miter;stroke-width:2;"/>
   </g>
   <g id="matplotlib.axis_1">
    <g id="xtick_1">
     <g id="line2d_1">
      <defs>
       <path d="M 0 0 
L 0 3.5 
" id="m00b5d079e4" style="stroke:#000000;stroke-width:0.8;"/>
      </defs>
      <g>
       <use style="stroke:#000000;stroke-width:0.8;" x="87.36" xlink:href="#m00b5d079e4" y="263.808"/>
      </g>
     </g>
     <g id="text_1">
      <!-- 0.0 -->
      <defs>
       <path d="M 31.78125 66.40625 
Q 24.171875 66.40625 20.328125 58.90625 
Q 16.5 51.421875 16.5 36.375 
Q 16.5 21.390625 20.328125 13.890625 
Q 24.171875 6.390625 31.78125 6.390625 
Q 39.453125 6.390625 43.28125 13.890625 
Q 47.125 21.390625 47.125 36.375 
Q 47.125 51.421875 43.28125 58.90625 
Q 39.453125 66.40625 31.78125 66.40625 
z
M 31.78125 74.21875 
Q 44.046875 74.21875 50.515625 64.515625 
Q 56.984375 54.828125 56.984375 36.375 
Q 56.984375 17.96875 50.515625 8.265625 
Q 44.046875 -1.421875 31.78125 -1.421875 
Q 19.53125 -1.421875 13.0625 8.265625 
Q 6.59375 17.96875 6.59375 36.375 
Q 6.59375 54.828125 13.0625 64.515625 
Q 19.53125 74.21875 31.78125 74.21875 
z
" id="DejaVuSans-48"/>
       <path d="M 10.6875 12.40625 
L 21 12.40625 
L 21 0 
L 10.6875 0 
z
" id="DejaVuSans-46"/>
      </defs>
      <g transform="translate(79.408438 278.406437)scale(0.1 -0.1)">
       <use xlink:href="#DejaVuSans-48"/>
       <use x="63.623047" xlink:href="#DejaVuSans-46"/>
       <use x="95.410156" xlink:href="#DejaVuSans-48"/>
      </g>
     </g>
    </g>
    <g id="xtick_2">
     <g id="line2d_2">
      <g>
       <use style="stroke:#000000;stroke-width:0.8;" x="161.76" xlink:href="#m00b5d079e4" y="263.808"/>
      </g>
     </g>
     <g id="text_2">
      <!-- 0.5 -->
      <defs>
       <path d="M 10.796875 72.90625 
L 49.515625 72.90625 
L 49.515625 64.59375 
L 19.828125 64.59375 
L 19.828125 46.734375 
Q 21.96875 47.46875 24.109375 47.828125 
Q 26.265625 48.1875 28.421875 48.1875 
Q 40.625 48.1875 47.75 41.5 
Q 54.890625 34.8125 54.890625 23.390625 
Q 54.890625 11.625 47.5625 5.09375 
Q 40.234375 -1.421875 26.90625 -1.421875 
Q 22.3125 -1.421875 17.546875 -0.640625 
Q 12.796875 0.140625 7.71875 1.703125 
L 7.71875 11.625 
Q 12.109375 9.234375 16.796875 8.0625 
Q 21.484375 6.890625 26.703125 6.890625 
Q 35.15625 6.890625 40.078125 11.328125 
Q 45.015625 15.765625 45.015625 23.390625 
Q 45.015625 31 40.078125 35.4375 
Q 35.15625 39.890625 26.703125 39.890625 
Q 22.75 39.890625 18.8125 39.015625 
Q 14.890625 38.140625 10.796875 36.28125 
z
" id="DejaVuSans-53"/>
      </defs>
      <g transform="translate(153.808437 278.406437)scale(0.1 -0.1)">
       <use xlink:href="#DejaVuSans-48"/>
       <use x="63.623047" xlink:href="#DejaVuSans-46"/>
       <use x="95.410156" xlink:href="#DejaVuSans-53"/>
      </g>
     </g>
    </g>
    <g id="xtick_3">
     <g id="line2d_3">
      <g>
       <use style="stroke:#000000;stroke-width:0.8;" x="236.16" xlink:href="#m00b5d079e4" y="263.808"/>
      </g>
     </g>
     <g id="text_3">
      <!-- 1.0 -->
      <defs>
       <path d="M 12.40625 8.296875 
L 28.515625 8.296875 
L 28.515625 63.921875 
L 10.984375 60.40625 
L 10.984375 69.390625 
L 28.421875 72.90625 
L 38.28125 72.90625 
L 38.28125 8.296875 
L 54.390625 8.296875 
L 54.390625 0 
L 12.40625 0 
z
" id="DejaVuSans-49"/>
      </defs>
      <g transform="translate(228.208437 278.406437)scale(0.1 -0.1)">
       <use xlink:href="#DejaVuSans-49"/>
       <use x="63.623047" xlink:href="#DejaVuSans-46"/>
       <use x="95.410156" xlink:href="#DejaVuSans-48"/>
      </g>
     </g>
    </g>
    <g id="xtick_4">
     <g id="line2d_4">
      <g>
       <use style="stroke:#000000;stroke-width:0.8;" x="310.56" xlink:href="#m00b5d079e4" y="263.808"/>
      </g>
     </g>
     <g id="text_4">
      <!-- 1.5 -->
      <g transform="translate(302.608437 278.406437)scale(0.1 -0.1)">
       <use xlink:href="#DejaVuSans-49"/>
       <use x="63.623047" xlink:href="#DejaVuSans-46"/>
       <use x="95.410156" xlink:href="#DejaVuSans-53"/>
      </g>
     </g>
    </g>
    <g id="xtick_5">
     <g id="line2d_5">
      <g>
       <use style="stroke:#000000;stroke-width:0.8;" x="384.96" xlink:href="#m00b5d079e4" y="263.808"/>
      </g>
     </g>
     <g id="text_5">
      <!-- 2.0 -->
      <defs>
       <path d="M 19.1875 8.296875 
L 53.609375 8.296875 
L 53.609375 0 
L 7.328125 0 
L 7.328125 8.296875 
Q 12.9375 14.109375 22.625 23.890625 
Q 32.328125 33.6875 34.8125 36.53125 
Q 39.546875 41.84375 41.421875 45.53125 
Q 43.3125 49.21875 43.3125 52.78125 
Q 43.3125 58.59375 39.234375 62.25 
Q 35.15625 65.921875 28.609375 65.921875 
Q 23.96875 65.921875 18.8125 64.3125 
Q 13.671875 62.703125 7.8125 59.421875 
L 7.8125 69.390625 
Q 13.765625 71.78125 18.9375 73 
Q 24.125 74.21875 28.421875 74.21875 
Q 39.75 74.21875 46.484375 68.546875 
Q 53.21875 62.890625 53.21875 53.421875 
Q 53.21875 48.921875 51.53125 44.890625 
Q 49.859375 40.875 45.40625 35.40625 
Q 44.1875 33.984375 37.640625 27.21875 
Q 31.109375 20.453125 19.1875 8.296875 
z
" id="DejaVuSans-50"/>
      </defs>
      <g transform="translate(377.008437 278.406437)scale(0.1 -0.1)">
       <use xlink:href="#DejaVuSans-50"/>
       <use x="63.623047" xlink:href="#DejaVuSans-46"/>
       <use x="95.410156" xlink:href="#DejaVuSans-48"/>
      </g>
     </g>
    </g>
   </g>
   <g id="matplotlib.axis_2">
    <g id="ytick_1">
     <g id="line2d_6">
      <defs>
       <path d="M 0 0 
L -3.5 0 
" id="mf8b078e23e" style="stroke:#000000;stroke-width:0.8;"/>
      </defs>
      <g>
       <use style="stroke:#000000;stroke-width:0.8;" x="57.6" xlink:href="#mf8b078e23e" y="248.928"/>
      </g>
     </g>
     <g id="text_6">
      <!-- 0.0 -->
      <g transform="translate(34.696875 252.727219)scale(0.1 -0.1)">
       <use xlink:href="#DejaVuSans-48"/>
       <use x="63.623047" xlink:href="#DejaVuSans-46"/>
       <use x="95.410156" xlink:href="#DejaVuSans-48"/>
      </g>
     </g>
    </g>
    <g id="ytick_2">
     <g id="line2d_7">
      <g>
       <use style="stroke:#000000;stroke-width:0.8;" x="57.6" xlink:href="#mf8b078e23e" y="219.168"/>
      </g>
     </g>
     <g id="text_7">
      <!-- 0.2 -->
      <g transform="translate(34.696875 222.967219)scale(0.1 -0.1)">
       <use xlink:href="#DejaVuSans-48"/>
       <use x="63.623047" xlink:href="#DejaVuSans-46"/>
       <use x="95.410156" xlink:href="#DejaVuSans-50"/>
      </g>
     </g>
    </g>
    <g id="ytick_3">
     <g id="line2d_8">
      <g>
       <use style="stroke:#000000;stroke-width:0.8;" x="57.6" xlink:href="#mf8b078e23e" y="189.408"/>
      </g>
     </g>
     <g id="text_8">
      <!-- 0.4 -->
      <defs>
       <path d="M 37.796875 64.3125 
L 12.890625 25.390625 
L 37.796875 25.390625 
z
M 35.203125 72.90625 
L 47.609375 72.90625 
L 47.609375 25.390625 
L 58.015625 25.390625 
L 58.015625 17.1875 
L 47.609375 17.1875 
L 47.609375 0 
L 37.796875 0 
L 37.796875 17.1875 
L 4.890625 17.1875 
L 4.890625 26.703125 
z
" id="DejaVuSans-52"/>
      </defs>
      <g transform="translate(34.696875 193.207219)scale(0.1 -0.1)">
       <use xlink:href="#DejaVuSans-48"/>
       <use x="63.623047" xlink:href="#DejaVuSans-46"/>
       <use x="95.410156" xlink:href="#DejaVuSans-52"/>
      </g>
     </g>
    </g>
    <g id="ytick_4">
     <g id="line2d_9">
      <g>
       <use style="stroke:#000000;stroke-width:0.8;" x="57.6" xlink:href="#mf8b078e23e" y="159.648"/>
      </g>
     </g>
     <g id="text_9">
      <!-- 0.6 -->
      <defs>
       <path d="M 33.015625 40.375 
Q 26.375 40.375 22.484375 35.828125 
Q 18.609375 31.296875 18.609375 23.390625 
Q 18.609375 15.53125 22.484375 10.953125 
Q 26.375 6.390625 33.015625 6.390625 
Q 39.65625 6.390625 43.53125 10.953125 
Q 47.40625 15.53125 47.40625 23.390625 
Q 47.40625 31.296875 43.53125 35.828125 
Q 39.65625 40.375 33.015625 40.375 
z
M 52.59375 71.296875 
L 52.59375 62.3125 
Q 48.875 64.0625 45.09375 64.984375 
Q 41.3125 65.921875 37.59375 65.921875 
Q 27.828125 65.921875 22.671875 59.328125 
Q 17.53125 52.734375 16.796875 39.40625 
Q 19.671875 43.65625 24.015625 45.921875 
Q 28.375 48.1875 33.59375 48.1875 
Q 44.578125 48.1875 50.953125 41.515625 
Q 57.328125 34.859375 57.328125 23.390625 
Q 57.328125 12.15625 50.6875 5.359375 
Q 44.046875 -1.421875 33.015625 -1.421875 
Q 20.359375 -1.421875 13.671875 8.265625 
Q 6.984375 17.96875 6.984375 36.375 
Q 6.984375 53.65625 15.1875 63.9375 
Q 23.390625 74.21875 37.203125 74.21875 
Q 40.921875 74.21875 44.703125 73.484375 
Q 48.484375 72.75 52.59375 71.296875 
z
" id="DejaVuSans-54"/>
      </defs>
      <g transform="translate(34.696875 163.447219)scale(0.1 -0.1)">
       <use xlink:href="#DejaVuSans-48"/>
       <use x="63.623047" xlink:href="#DejaVuSans-46"/>
       <use x="95.410156" xlink:href="#DejaVuSans-54"/>
      </g>
     </g>
    </g>
    <g id="ytick_5">
     <g id="line2d_10">
      <g>
       <use style="stroke:#000000;stroke-width:0.8;" x="57.6" xlink:href="#mf8b078e23e" y="129.888"/>
      </g>
     </g>
     <g id="text_10">
      <!-- 0.8 -->
      <defs>
       <path d="M 31.78125 34.625 
Q 24.75 34.625 20.71875 30.859375 
Q 16.703125 27.09375 16.703125 20.515625 
Q 16.703125 13.921875 20.71875 10.15625 
Q 24.75 6.390625 31.78125 6.390625 
Q 38.8125 6.390625 42.859375 10.171875 
Q 46.921875 13.96875 46.921875 20.515625 
Q 46.921875 27.09375 42.890625 30.859375 
Q 38.875 34.625 31.78125 34.625 
z
M 21.921875 38.8125 
Q 15.578125 40.375 12.03125 44.71875 
Q 8.5 49.078125 8.5 55.328125 
Q 8.5 64.0625 14.71875 69.140625 
Q 20.953125 74.21875 31.78125 74.21875 
Q 42.671875 74.21875 48.875 69.140625 
Q 55.078125 64.0625 55.078125 55.328125 
Q 55.078125 49.078125 51.53125 44.71875 
Q 48 40.375 41.703125 38.8125 
Q 48.828125 37.15625 52.796875 32.3125 
Q 56.78125 27.484375 56.78125 20.515625 
Q 56.78125 9.90625 50.3125 4.234375 
Q 43.84375 -1.421875 31.78125 -1.421875 
Q 19.734375 -1.421875 13.25 4.234375 
Q 6.78125 9.90625 6.78125 20.515625 
Q 6.78125 27.484375 10.78125 32.3125 
Q 14.796875 37.15625 21.921875 38.8125 
z
M 18.3125 54.390625 
Q 18.3125 48.734375 21.84375 45.5625 
Q 25.390625 42.390625 31.78125 42.390625 
Q 38.140625 42.390625 41.71875 45.5625 
Q 45.3125 48.734375 45.3125 54.390625 
Q 45.3125 60.0625 41.71875 63.234375 
Q 38.140625 66.40625 31.78125 66.40625 
Q 25.390625 66.40625 21.84375 63.234375 
Q 18.3125 60.0625 18.3125 54.390625 
z
" id="DejaVuSans-56"/>
      </defs>
      <g transform="translate(34.696875 133.687219)scale(0.1 -0.1)">
       <use xlink:href="#DejaVuSans-48"/>
       <use x="63.623047" xlink:href="#DejaVuSans-46"/>
       <use x="95.410156" xlink:href="#DejaVuSans-56"/>
      </g>
     </g>
    </g>
    <g id="ytick_6">
     <g id="line2d_11">
      <g>
       <use style="stroke:#000000;stroke-width:0.8;" x="57.6" xlink:href="#mf8b078e23e" y="100.128"/>
      </g>
     </g>
     <g id="text_11">
      <!-- 1.0 -->
      <g transform="translate(34.696875 103.927219)scale(0.1 -0.1)">
       <use xlink:href="#DejaVuSans-49"/>
       <use x="63.623047" xlink:href="#DejaVuSans-46"/>
       <use x="95.410156" xlink:href="#DejaVuSans-48"/>
      </g>
     </g>
    </g>
   </g>
   <g id="line2d_12">
    <path clip-path="url(#pb103b76543)" d="M 236.16 248.928 
L 236.16 100.128 
" style="fill:none;stroke:#cc0000;stroke-dasharray:7.4,3.2;stroke-dashoffset:0;stroke-width:2;"/>
   </g>
   <g id="line2d_13">
    <path clip-path="url(#pb103b76543)" d="M 87.36 248.928 
L 384.96 248.928 
" style="fill:none;stroke:#009900;stroke-linecap:square;stroke-width:2;"/>
   </g>
   <g id="line2d_14">
    <path clip-path="url(#pb103b76543)" d="M 384.96 248.928 
L 384.96 100.128 
" style="fill:none;stroke:#009900;stroke-linecap:square;stroke-width:2;"/>
   </g>
   <g id="line2d_15">
    <path clip-path="url(#pb103b76543)" d="M 384.96 100.128 
L 87.36 100.128 
" style="fill:none;stroke:#009900;stroke-linecap:square;stroke-width:2;"/>
   </g>
   <g id="line2d_16">
    <path clip-path="url(#pb103b76543)" d="M 87.36 100.128 
L 87.36 248.928 
" style="fill:none;stroke:#009900;stroke-linecap:square;stroke-width:2;"/>
   </g>
   <g id="line2d_17">
    <path clip-path="url(#pb103b76543)" d="M 218.969572 164.826046 
L 217.389517 159.088014 
L 215.581266 153.417758 
L 213.547711 147.824347 
L 211.292107 142.316732 
L 208.818061 136.903722 
L 206.129531 131.593977 
L 203.230819 126.395992 
L 200.126561 121.318083 
L 196.821724 116.368372 
L 193.321595 111.554779 
L 189.631773 106.885005 
L 185.758162 102.366518 
L 183.718781 100.128 
L 179.754022 104.566723 
L 175.969935 109.160444 
L 172.372575 113.901813 
L 168.967697 118.783246 
L 165.760748 123.796933 
L 162.756858 128.934853 
L 159.960833 134.188787 
L 158.340973 137.485453 
L 157.42729 141.854264 
L 156.253281 146.160424 
L 154.823169 150.388438 
L 153.142103 154.523088 
L 151.216131 158.549495 
L 149.052185 162.453167 
L 146.658053 166.220056 
L 144.042352 169.836605 
L 141.214495 173.289798 
L 138.184659 176.567208 
L 134.963748 179.657039 
L 131.563355 182.548171 
L 127.995717 185.230199 
L 126.465689 186.281791 
L 130.927811 186.17796 
L 135.388131 186.341882 
L 139.830594 186.772968 
L 144.239214 187.469666 
L 148.598124 188.429469 
L 152.891637 189.648922 
L 157.104301 191.123638 
L 161.220954 192.848308 
L 165.226781 194.816725 
L 169.107366 197.021806 
L 172.848742 199.455614 
L 176.437445 202.109391 
L 179.860559 204.973585 
L 181.23256 206.224363 
L 180.116656 201.90278 
L 179.2619 197.52206 
L 178.671368 193.097968 
L 178.347185 188.646426 
L 178.290517 184.183455 
L 178.501569 179.725118 
L 178.979581 175.287458 
L 179.722832 170.886447 
L 180.728648 166.537924 
L 181.99341 162.257539 
L 183.512564 158.060696 
L 185.280644 153.9625 
L 187.291287 149.9777 
L 188.197264 148.357195 
L 184.242708 150.426687 
L 180.171172 152.255325 
L 175.997311 153.836527 
L 171.736145 155.164602 
L 167.40301 156.234771 
L 163.013501 157.043181 
L 158.583415 157.586925 
L 154.128695 157.864044 
L 149.665375 157.873542 
L 145.209517 157.615384 
L 140.777157 157.090499 
L 136.384247 156.300777 
L 132.046597 155.24906 
L 130.262515 154.735365 
L 133.177138 158.115644 
L 135.883823 161.664613 
L 138.372826 165.369499 
L 140.63519 169.216969 
L 142.662774 173.193176 
L 144.44828 177.28381 
L 145.985282 181.474149 
L 147.268248 185.749113 
L 148.292563 190.093316 
L 149.054538 194.491124 
L 149.551432 198.926709 
L 149.781456 203.384108 
L 149.743783 207.847279 
L 149.649291 209.701438 
L 152.278138 206.094433 
L 155.118545 202.651555 
L 158.160289 199.385195 
L 161.392424 196.307108 
L 164.803317 193.428371 
L 168.380694 190.759345 
L 172.111678 188.309636 
L 175.982843 186.08806 
L 179.980256 184.102612 
L 184.089532 182.360438 
L 188.295881 180.867807 
L 192.584165 179.630091 
L 196.938951 178.651746 
L 198.766012 178.322082 
L 194.655664 176.58244 
L 190.657027 174.599456 
L 186.784494 172.380266 
L 183.052001 169.932857 
L 179.472981 167.266036 
L 176.060314 164.389402 
L 172.826283 161.313307 
L 169.782526 158.048822 
L 166.939998 154.607695 
L 164.308928 151.002311 
L 161.898787 147.245645 
L 159.718247 143.351218 
L 157.775157 139.333045 
L 157.038614 137.628833 
L 153.279316 133.014805 
L 149.338513 128.554799 
L 145.222509 124.25595 
L 140.93789 120.125137 
L 136.49151 116.168967 
L 131.890481 112.393769 
L 127.142166 108.805583 
L 122.254159 105.410149 
L 117.234281 102.212899 
L 113.703052 100.128 
L 108.596975 103.185706 
L 103.617259 106.445155 
L 98.771869 109.901132 
L 94.068557 113.548108 
L 89.514848 117.38025 
L 87.36 119.305847 
L 91.83843 123.2257 
L 96.47003 126.963328 
L 101.24739 130.512752 
L 106.162868 133.868293 
L 111.2086 137.024583 
L 116.376514 139.976573 
L 121.658343 142.71954 
L 127.045636 145.249097 
L 132.529775 147.561196 
L 135.119134 148.564482 
L 138.811872 151.071474 
L 142.347635 153.795386 
L 145.713699 156.726414 
L 148.89795 159.854012 
L 151.888928 163.166921 
L 154.675868 166.653221 
L 157.248741 170.300362 
L 159.598287 174.095221 
L 161.71605 178.024139 
L 163.594408 182.072977 
L 165.226602 186.227163 
L 166.606757 190.471747 
L 167.729907 194.791452 
L 168.592008 199.170733 
L 169.189959 203.593829 
L 169.521608 208.04482 
L 169.593475 210.893872 
L 167.903731 206.76276 
L 166.464747 202.537758 
L 165.2817 198.234072 
L 164.358847 193.867189 
L 163.699512 189.452827 
L 163.306065 185.006872 
L 163.179924 180.545324 
L 163.321542 176.084241 
L 163.73041 171.639677 
L 164.405056 167.227629 
L 165.343052 162.863974 
L 166.541022 158.564418 
L 167.994655 154.344433 
L 169.69872 150.219208 
L 171.647083 146.203589 
L 173.832733 142.312027 
L 175.348737 139.898732 
L 174.471448 144.274995 
L 173.33332 148.590778 
L 171.938448 152.830548 
L 170.291852 156.979047 
L 168.399459 161.021344 
L 166.268079 164.942892 
L 163.905382 168.729577 
L 161.319872 172.367771 
L 158.520854 175.844381 
L 155.518402 179.146895 
L 152.32332 182.263427 
L 148.947108 185.18276 
L 145.401916 187.89439 
L 141.700503 190.388556 
L 137.856191 192.656282 
L 133.882815 194.689407 
L 131.284983 195.861386 
L 134.436464 192.700771 
L 137.771797 189.734819 
L 141.278979 186.974204 
L 144.945387 184.428862 
L 148.757827 182.107952 
L 152.702577 180.019827 
L 156.765442 178.172003 
L 160.931798 176.57113 
L 165.186652 175.222969 
L 169.51469 174.132372 
L 173.900337 173.303264 
L 178.327809 172.738629 
L 182.781171 172.440499 
L 187.244397 172.409947 
L 191.701423 172.647083 
L 196.13621 173.151053 
L 198.948711 173.611598 
L 194.575004 174.501549 
L 190.155803 175.127632 
L 185.707012 175.487597 
L 181.244641 175.580146 
L 176.784751 175.404947 
L 172.343391 174.96263 
L 167.936547 174.254787 
L 163.580077 173.283967 
L 159.289662 172.053661 
L 155.08074 170.5683 
L 150.968461 168.833227 
L 146.967624 166.854687 
L 143.092627 164.639802 
L 139.357416 162.196542 
L 135.775434 159.533701 
L 132.359573 156.660861 
L 130.271218 154.721522 
L 134.407203 156.399302 
L 138.435138 158.322074 
L 142.340529 160.482917 
L 146.109319 162.874054 
L 149.727946 165.486881 
L 153.183385 168.311993 
L 156.463201 171.339223 
L 159.555591 174.557677 
L 162.449424 177.955771 
L 165.134287 181.521277 
L 167.600516 185.241362 
L 169.839237 189.102638 
L 171.842391 193.091208 
L 173.60277 197.192718 
L 175.114039 201.392406 
L 176.370758 205.67516 
L 177.037872 208.44594 
L 174.520204 204.760473 
L 172.228061 200.930668 
L 170.169694 196.97031 
L 168.35251 192.893649 
L 166.783048 188.715359 
L 165.466958 184.450476 
L 164.408975 180.11435 
L 163.612907 175.722586 
L 163.08162 171.290989 
L 162.817025 166.835508 
L 162.820075 162.372179 
L 163.090759 157.917064 
L 163.628102 153.486197 
L 164.43017 149.095524 
L 165.494078 144.760848 
L 166.815995 140.497768 
L 167.792804 137.820436 
L 167.851756 142.283377 
L 167.642986 146.741822 
L 167.167246 151.179726 
L 166.426246 155.581116 
L 165.422656 159.930154 
L 164.160085 164.211185 
L 162.643079 168.408805 
L 160.877096 172.507905 
L 158.868493 176.493734 
L 156.624498 180.351947 
L 154.153187 184.068658 
L 151.463454 187.630491 
L 148.564979 191.024628 
L 145.468194 194.238852 
L 142.184244 197.261598 
L 138.724947 200.081985 
L 136.430274 201.772173 
L 138.849717 198.021491 
L 141.489712 194.422638 
L 144.340758 190.988566 
L 147.392594 187.731633 
L 150.634238 184.663561 
L 154.054022 181.795391 
L 157.63964 179.137447 
L 161.378186 176.699294 
L 165.256206 174.489707 
L 169.259744 172.516637 
L 173.37439 170.787185 
L 177.585338 169.307577 
L 181.877431 168.083136 
L 186.235223 167.11827 
L 190.64303 166.41645 
L 195.08499 165.980204 
L 197.931564 165.841345 
L 193.841338 167.627787 
L 189.651351 169.165748 
L 185.376681 170.449694 
L 181.032713 171.475002 
L 176.63508 172.237984 
L 172.199608 172.735893 
L 167.742262 172.966938 
L 163.279082 172.930286 
L 158.826131 172.62607 
L 154.399435 172.055385 
L 150.014926 171.220284 
L 145.688382 170.123774 
L 141.435374 168.769799 
L 137.27121 167.163234 
L 133.210875 165.309859 
L 129.268982 163.216346 
L 126.820696 161.757524 
L 131.216384 162.531638 
L 135.557742 163.567941 
L 139.829148 164.862705 
L 144.015227 166.41127 
L 148.100917 168.208062 
L 152.071511 170.246616 
L 155.91272 172.519594 
L 159.610721 175.018816 
L 163.152204 177.735287 
L 166.524423 180.659232 
L 169.715243 183.780128 
L 172.71318 187.086741 
L 175.507444 190.567173 
L 178.087979 194.208897 
L 180.445499 197.998808 
L 182.571518 201.923265 
L 183.804275 204.492812 
L 185.230939 210.270892 
L 186.887523 215.987299 
L 188.771378 221.632888 
L 190.879489 227.198626 
L 193.208484 232.675611 
L 195.754637 238.05508 
L 198.513875 243.328427 
L 201.748284 248.928 
L 204.734032 243.779516 
L 207.511507 238.515752 
L 210.076267 233.145129 
L 212.424207 227.676239 
L 214.551572 222.117831 
L 216.454958 216.478797 
L 218.13132 210.768159 
L 219.577977 204.995052 
L 220.792614 199.168712 
L 221.773288 193.29846 
L 222.51843 187.393687 
L 223.026848 181.463839 
L 223.297729 175.518404 
L 223.330639 169.566891 
L 223.125525 163.618824 
L 222.682717 157.683716 
L 222.002922 151.771064 
L 221.087227 145.890325 
L 219.937098 140.050909 
L 218.554375 134.262156 
L 216.941269 128.533328 
L 215.100362 122.87359 
L 213.034598 117.291995 
L 210.747282 111.797473 
L 208.242073 106.398815 
L 205.52298 101.104657 
L 204.991702 100.128 
L 202.233128 105.401694 
L 199.687652 110.781483 
L 197.359346 116.258761 
L 195.251935 121.824765 
L 193.368791 127.470591 
L 191.712926 133.187206 
L 190.286989 138.965466 
L 189.093261 144.796126 
L 188.443076 148.607864 
L 194.330534 147.736422 
L 200.178435 146.630241 
L 205.977423 145.291092 
L 211.718221 143.721116 
L 217.391644 141.922826 
L 222.988617 139.899097 
L 228.500185 137.653168 
L 233.917531 135.188632 
L 236.16 134.090589 
L 230.78477 131.535499 
L 225.311663 129.197406 
L 219.749436 127.080048 
L 214.106985 125.186813 
L 208.393339 123.520731 
L 202.617638 122.084467 
L 196.789121 120.880317 
L 190.917114 119.91021 
L 185.011009 119.175696 
L 179.080257 118.677951 
L 173.134343 118.417771 
L 167.182781 118.395572 
L 161.235092 118.611389 
L 155.300791 119.064879 
L 149.389372 119.755314 
L 143.510291 120.681591 
L 137.672954 121.842227 
L 131.886699 123.235366 
L 126.160784 124.85878 
L 120.504367 126.70987 
L 114.926499 128.785676 
L 109.436103 131.082877 
L 104.041962 133.597797 
L 98.752706 136.326414 
L 93.576797 139.264362 
L 88.522514 142.406942 
L 87.36 143.170152 
L 92.384693 146.35983 
L 97.532919 149.346022 
L 102.796443 152.123952 
L 108.166845 154.689174 
L 113.635532 157.037587 
L 119.193757 159.165431 
L 124.832626 161.069304 
L 128.252631 162.173724 
L 132.410805 163.795733 
L 136.464234 165.664163 
L 140.39833 167.772291 
L 144.198935 170.11253 
L 147.852372 172.676457 
L 151.34549 175.454845 
L 154.66572 178.437695 
L 157.801111 181.614272 
L 160.74038 184.973143 
L 163.472949 188.50222 
L 165.988983 192.188803 
L 168.279427 196.019624 
L 170.336038 199.980895 
L 172.151415 204.05836 
L 173.719024 208.237346 
L 174.168611 209.597451 
L 171.442044 201.101604 
L 170.465637 196.746383 
L 169.752143 192.34045 
L 169.30413 187.899662 
L 169.123211 183.44 
L 169.210036 178.977514 
L 169.564294 174.528264 
L 170.184709 170.108264 
L 171.069049 165.73342 
L 172.21413 161.419477 
L 173.615833 157.18196 
L 175.269111 153.03612 
L 177.168016 148.996877 
L 179.305713 145.078769 
L 180.829839 142.587724 
L 176.893446 148.897422 
L 174.235913 152.483344 
L 171.368135 155.903457 
L 168.300435 159.145452 
L 165.043851 162.197662 
L 161.610105 165.049101 
L 158.011554 167.689508 
L 154.261149 170.10938 
L 150.372388 172.300009 
L 146.359265 174.25351 
L 142.236225 175.962853 
L 138.018104 177.421885 
L 133.720084 178.625357 
L 129.357633 179.568937 
L 125.001523 180.242399 
L 130.889761 179.384454 
L 135.340648 179.051412 
L 139.803497 178.985862 
L 144.262246 179.188041 
L 148.700849 179.65722 
L 153.10333 180.391712 
L 157.453846 181.388872 
L 161.73674 182.645112 
L 165.936597 184.155911 
L 170.038304 185.915832 
L 174.027098 187.91854 
L 177.888624 190.156829 
L 181.608984 192.622643 
L 185.17479 195.307107 
L 188.573208 198.200561 
L 191.752286 201.254068 
L 196.127114 205.289221 
L 200.659806 209.1462 
L 205.34311 212.818835 
L 210.169534 216.301249 
L 215.131357 219.587873 
L 220.220641 222.673447 
L 225.429244 225.553037 
L 230.748833 228.222034 
L 236.16 230.671496 
L 230.73813 233.126064 
L 225.418753 235.795485 
L 220.210379 238.67549 
L 215.121341 241.76147 
L 210.15978 245.048489 
L 205.333634 248.531288 
L 204.808872 248.928 
L 199.99817 245.423899 
L 195.051189 242.114977 
L 189.975844 239.006529 
L 184.780254 236.103526 
L 179.47273 233.410614 
L 174.061765 230.9321 
L 168.556013 228.67195 
L 162.964283 226.633779 
L 157.295521 224.820848 
L 151.558796 223.236057 
L 145.763285 221.881942 
L 139.918259 220.760668 
L 134.03307 219.87403 
L 128.117132 219.223446 
L 122.179909 218.809957 
L 116.230901 218.634224 
L 110.279624 218.696528 
L 104.335599 218.99677 
L 98.408335 219.53447 
L 92.507314 220.308767 
L 87.36 221.181812 
L 93.230226 222.162645 
L 99.134978 222.907947 
L 105.064812 223.416525 
L 111.01024 223.687567 
L 116.961752 223.720639 
L 122.909825 223.515686 
L 128.844944 223.073039 
L 134.757615 222.393404 
L 140.638378 221.477868 
L 146.477826 220.327898 
L 152.266616 218.945331 
L 157.995488 217.332381 
L 163.655276 215.491627 
L 169.236927 213.426014 
L 174.731511 211.138847 
L 180.130237 208.633785 
L 185.424469 205.914835 
L 190.605737 202.986347 
L 195.665752 199.853006 
L 200.59642 196.519825 
L 205.389852 192.992136 
L 210.03838 189.275582 
L 214.534567 185.37611 
L 218.87122 181.299957 
L 223.041402 177.053645 
L 227.038441 172.643967 
L 230.855942 168.077978 
L 234.487799 163.362981 
L 236.16 161.053897 
L 232.619144 156.270183 
L 228.889823 151.631892 
L 224.978003 147.146444 
L 220.889941 142.821015 
L 216.632179 138.662525 
L 212.211527 134.677626 
L 207.635058 130.872694 
L 202.910093 127.253815 
L 198.04419 123.826779 
L 193.045135 120.597069 
L 187.920925 117.569851 
L 182.679757 114.749968 
L 177.330016 112.141931 
L 171.880261 109.749914 
L 166.33921 107.577741 
L 160.715727 105.628889 
L 155.018809 103.906476 
L 149.25757 102.413256 
L 143.441227 101.151618 
L 137.607604 100.128 
L 131.745661 101.157174 
L 125.929562 102.419939 
L 120.168613 103.914277 
L 114.472029 105.637795 
L 108.848925 107.587738 
L 103.308295 109.760985 
L 97.859004 112.154059 
L 92.509769 114.763134 
L 87.36 117.532802 
L 92.602597 120.350028 
L 97.953659 122.955352 
L 103.404626 125.344606 
L 108.946778 127.513969 
L 114.571248 129.459969 
L 120.269038 131.179495 
L 126.031034 132.669794 
L 131.848016 133.928482 
L 137.71068 134.953546 
L 143.609645 135.743347 
L 149.535476 136.29662 
L 155.478692 136.61248 
L 161.429785 136.690423 
L 167.379234 136.530323 
L 173.317522 136.132436 
L 179.235149 135.4974 
L 185.122648 134.626229 
L 190.9706 133.520318 
L 196.76965 132.181437 
L 202.51052 130.611726 
L 208.184026 128.813697 
L 213.781092 126.790226 
L 219.292763 124.544551 
L 224.710223 122.080264 
L 230.024805 119.401308 
L 235.228005 116.511969 
L 236.16 115.965228 
L 230.977918 113.038181 
L 225.68293 110.320703 
L 220.283507 107.817142 
L 214.788288 105.531503 
L 209.206063 103.467443 
L 203.545763 101.628262 
L 198.241508 100.128 
L 192.51697 101.756267 
L 186.862125 103.612151 
L 181.286019 105.692685 
L 175.797572 107.994539 
L 170.405565 110.514031 
L 165.118624 113.24713 
L 159.945206 116.189465 
L 154.893589 119.336328 
L 149.971854 122.682684 
L 145.187874 126.223181 
L 140.549302 129.952153 
L 136.063561 133.863636 
L 131.737825 137.951373 
L 127.579014 142.208823 
L 123.593784 146.629175 
L 119.788507 151.205358 
L 116.169274 155.930052 
L 112.741872 160.795697 
L 109.511786 165.794509 
L 106.484183 170.918492 
L 103.663906 176.159448 
L 101.055468 181.508993 
L 98.66304 186.958568 
L 96.490452 192.499456 
L 94.541177 198.122792 
L 92.818335 203.81958 
L 91.324683 209.580707 
L 90.062608 215.396956 
L 89.034131 221.259022 
L 88.240897 227.157527 
L 87.684174 233.083034 
L 87.36 239.17228 
L 87.673477 245.115622 
L 88.000436 248.928 
L 88.466629 242.994683 
L 88.69518 237.04747 
L 88.685722 231.095875 
L 88.438272 225.149418 
L 87.953225 219.217613 
L 87.36 214.233121 
L 88.044848 208.321052 
L 88.492728 202.386325 
L 88.702925 196.438435 
L 88.675101 190.486897 
L 88.409301 184.541232 
L 87.905951 178.610952 
L 87.36 174.083217 
L 88.044848 168.171148 
L 88.492728 162.236421 
L 88.702925 156.288531 
L 88.675101 150.336993 
L 88.409301 144.391328 
L 87.905951 138.461048 
L 87.36 133.933314 
L 88.044848 128.021244 
L 88.492728 122.086517 
L 88.702925 116.138627 
L 88.675101 110.187089 
L 88.409301 104.241424 
L 88.085566 100.128 
L 87.655015 106.064009 
L 87.462184 112.012488 
L 87.507384 117.963919 
L 87.790541 123.908783 
L 88.311203 129.837568 
L 89.068537 135.74079 
L 90.061331 141.609004 
L 91.287996 147.432824 
L 92.746572 153.202931 
L 94.434723 158.910095 
L 96.349749 164.545187 
L 98.488587 170.09919 
L 100.847816 175.56322 
L 103.42366 180.928535 
L 106.211999 186.186552 
L 109.208372 191.32886 
L 112.407986 196.347231 
L 115.805722 201.233638 
L 119.396144 205.980263 
L 123.173509 210.579513 
L 127.131773 215.024029 
L 131.264605 219.306702 
L 135.565391 223.42068 
L 140.027253 227.359382 
L 144.643052 231.116506 
L 149.405403 234.686042 
L 154.306689 238.06228 
L 159.339067 241.239818 
L 164.494488 244.213573 
L 169.764703 246.978787 
L 173.81971 248.928 
L 179.171117 246.323384 
L 184.414086 243.506851 
L 189.540231 240.482909 
L 194.541349 237.256395 
L 199.409441 233.83247 
L 204.136718 230.216612 
L 208.715619 226.414606 
L 213.138817 222.432534 
L 217.399236 218.276766 
L 221.490062 213.953951 
L 225.404748 209.471004 
L 229.137034 204.835098 
L 232.680947 200.053648 
L 236.16 194.93585 
L 232.817961 190.011182 
L 229.281662 185.224098 
L 225.556759 180.582258 
L 221.649211 176.093088 
L 217.56527 171.763768 
L 213.31147 167.601226 
L 208.894614 163.61212 
L 204.32177 159.802832 
L 199.600252 156.179455 
L 194.737615 152.747788 
L 189.741638 149.513319 
L 188.697832 148.872724 
L 185.7532 143.700614 
L 182.604094 138.650395 
L 179.255552 133.730146 
L 175.712931 128.947739 
L 171.981898 124.310825 
L 168.068423 119.82682 
L 163.978766 115.5029 
L 159.719469 111.345982 
L 155.297347 107.362715 
L 150.719474 103.559471 
L 146.245537 100.128 
L 141.526863 103.755078 
L 136.957008 107.567952 
L 132.543282 111.560521 
L 128.292748 115.726399 
L 124.212204 120.05892 
L 120.308178 124.551154 
L 116.586917 129.195914 
L 113.054374 133.98577 
L 109.716199 138.913058 
L 106.577733 143.969896 
L 103.643997 149.148195 
L 100.919685 154.439669 
L 98.409154 159.835855 
L 96.116422 165.328118 
L 94.045155 170.907673 
L 92.198668 176.565594 
L 90.579914 182.292829 
L 89.191484 188.080215 
L 88.035597 193.918495 
L 87.36 198.069968 
L 88.350412 203.938585 
L 89.574714 209.762902 
L 91.030947 215.533601 
L 92.716782 221.24145 
L 94.629521 226.877318 
L 96.766105 232.432189 
L 99.123115 237.897176 
L 101.696782 243.263536 
L 104.709038 248.928 
L 107.511631 243.677567 
L 110.102022 238.31926 
L 112.476066 232.861651 
L 114.629964 227.31347 
L 116.560272 221.683595 
L 118.263901 215.981032 
L 119.738125 210.214903 
L 120.980586 204.394433 
L 121.989297 198.528933 
L 122.762643 192.627788 
L 123.299388 186.700438 
L 123.598673 180.756364 
L 123.660019 174.805077 
L 123.483328 168.856097 
L 123.068882 162.918942 
L 122.417345 157.003109 
L 121.529759 151.118062 
L 120.407544 145.273217 
L 119.052495 139.477924 
L 117.46678 133.741454 
L 115.652936 128.072984 
L 113.613864 122.481583 
L 111.352827 116.976195 
L 108.873442 111.565629 
L 106.179675 106.258539 
L 103.275836 101.063417 
L 102.723551 100.128 
L 99.781863 105.301785 
L 97.049425 110.589068 
L 94.530607 115.98139 
L 92.22944 121.470125 
L 90.149603 127.046492 
L 88.294426 132.701569 
L 87.36 135.880897 
L 89.088785 141.575884 
L 91.043927 147.197183 
L 93.222296 152.735801 
L 95.620409 158.182877 
L 98.234428 163.529697 
L 101.060173 168.767707 
L 104.093121 173.888528 
L 107.328422 178.883967 
L 110.760899 183.746032 
L 114.385061 188.466946 
L 118.19511 193.039156 
L 122.184952 197.455348 
L 126.348202 201.708455 
L 130.678202 205.791675 
L 135.168023 209.698476 
L 139.810483 213.422606 
L 144.598155 216.958108 
L 149.52338 220.299327 
L 154.578278 223.440916 
L 159.754763 226.377851 
L 165.044553 229.105432 
L 170.439186 231.619296 
L 175.930032 233.915422 
L 181.508307 235.990135 
L 187.165085 237.840118 
L 192.891319 239.46241 
L 198.677846 240.854416 
L 204.51541 242.013909 
L 210.394673 242.939035 
L 216.306227 243.628312 
L 222.240617 244.080639 
L 228.188348 244.295293 
L 234.139905 244.271928 
L 246.568624 243.832337 
L 253.992108 243.33978 
L 261.400959 242.661809 
L 268.790547 241.798848 
L 276.156254 240.751436 
L 283.493477 239.520228 
L 290.797631 238.105994 
L 298.06415 236.509616 
L 305.288493 234.732093 
L 312.466145 232.774536 
L 319.59262 230.638168 
L 326.663464 228.324324 
L 333.674259 225.834451 
L 340.620623 223.170104 
L 347.498215 220.332949 
L 354.302736 217.324758 
L 361.029934 214.147412 
L 367.675604 210.802896 
L 374.235593 207.293301 
L 380.705802 203.62082 
L 384.96 201.087625 
L 378.551785 197.308009 
L 372.051092 193.689762 
L 365.461984 190.235147 
L 358.788578 186.946321 
L 352.035046 183.825341 
L 345.205607 180.874157 
L 338.304531 178.094614 
L 332.829388 176.030249 
L 340.075784 174.344882 
L 347.277786 172.478901 
L 354.430893 170.433471 
L 361.530634 168.209872 
L 368.572572 165.809492 
L 375.552306 163.233832 
L 382.465475 160.484502 
L 384.96 159.442867 
L 378.07209 156.630855 
L 371.116039 153.991901 
L 364.096195 151.527655 
L 357.016945 149.239657 
L 349.882713 147.129337 
L 342.697958 145.198013 
L 335.46717 143.446893 
L 328.194868 141.877071 
L 320.885597 140.489529 
L 313.543925 139.285132 
L 306.174441 138.264635 
L 298.781749 137.428674 
L 291.370471 136.777773 
L 283.945238 136.312338 
L 276.51069 136.03266 
L 269.071475 135.938913 
L 261.632241 136.031157 
L 254.197637 136.309333 
L 246.77231 136.773268 
L 239.3609 137.422672 
L 236.16 137.761 
L 230.38101 139.183974 
L 224.663546 140.836907 
L 219.016755 142.717155 
L 213.449671 144.821711 
L 207.9712 147.147207 
L 202.590106 149.689924 
L 197.314998 152.445793 
L 193.265775 154.748563 
L 194.499313 153.916392 
L 199.348412 150.46562 
L 204.055638 146.823697 
L 208.61346 142.996448 
L 213.014588 138.989996 
L 217.25198 134.810751 
L 221.318857 130.465398 
L 225.208713 125.960889 
L 228.915326 121.304431 
L 232.432765 116.503472 
L 235.755403 111.565694 
L 236.16 110.934169 
L 232.862292 105.979706 
L 229.369097 101.161079 
L 228.581082 100.128 
L 225.045944 104.915941 
L 221.705101 109.84142 
L 218.563896 114.896558 
L 215.627356 120.073266 
L 212.900177 125.363264 
L 210.386724 130.758089 
L 208.091017 136.24911 
L 206.016728 141.827542 
L 204.167176 147.484461 
L 202.54532 153.210818 
L 201.153754 158.997452 
L 199.994706 164.835104 
L 199.070028 170.714437 
L 198.882832 172.133148 
L 200.500265 177.860756 
L 202.345446 183.519103 
L 204.415425 189.099136 
L 206.706891 194.591928 
L 209.216176 199.988693 
L 211.939267 205.280796 
L 214.871808 210.459771 
L 218.009107 215.517333 
L 221.346145 220.445392 
L 224.877583 225.236062 
L 228.597772 229.881681 
L 232.500761 234.374816 
L 236.16 238.277595 
L 232.098015 242.627521 
L 228.213229 247.136404 
L 226.75428 248.928 
L 222.939972 244.359342 
L 218.946018 239.94687 
L 214.778806 235.697643 
L 210.445004 231.618459 
L 205.951545 227.715844 
L 201.305617 223.99604 
L 196.514653 220.465 
L 191.586318 217.128372 
L 186.528495 213.991494 
L 181.349276 211.059383 
L 176.638601 208.622974 
L 175.060614 214.361574 
L 173.713371 220.158687 
L 172.599029 226.005039 
L 171.719371 231.891275 
L 171.075802 237.80798 
L 170.669353 243.745689 
L 170.509052 248.928 
L 170.481526 247.440261 
L 170.222714 241.494288 
L 169.726334 235.56342 
L 168.99318 229.657147 
L 168.024424 223.784916 
L 166.821617 217.956123 
L 165.386682 212.180091 
L 165.219816 211.566759 
L 164.854079 217.507114 
L 164.726186 223.457343 
L 164.83634 229.407927 
L 165.184366 235.349346 
L 165.769708 241.272095 
L 166.591428 247.166699 
L 166.88382 248.928 
L 167.776207 243.04368 
L 168.43257 237.12838 
L 168.851859 231.191565 
L 169.033404 225.242731 
L 168.976913 219.291396 
L 168.682478 213.34708 
L 168.326536 209.633863 
L 167.954224 205.186088 
L 167.849288 200.723991 
L 168.012106 196.263631 
L 168.442092 191.821061 
L 169.137698 187.412269 
L 170.096422 183.053121 
L 171.314812 178.759306 
L 172.788485 174.546278 
L 174.512135 170.429198 
L 176.479561 166.422884 
L 178.683681 162.541753 
L 181.116562 158.799775 
L 183.76945 155.210415 
L 186.632797 151.786592 
L 189.024248 149.219883 
L 185.523747 151.988964 
L 181.8635 154.543159 
L 178.056679 156.873274 
L 174.116986 158.970924 
L 170.058598 160.828559 
L 165.896122 162.439495 
L 161.644539 163.797933 
L 157.319148 164.898984 
L 152.935517 165.738687 
L 148.509423 166.314018 
L 144.056794 166.622908 
L 139.593655 166.664245 
L 135.136068 166.437879 
L 130.700077 165.944626 
L 126.301645 165.186261 
L 125.780259 165.078226 
L 129.994319 166.548945 
L 134.112606 168.269709 
L 138.120299 170.234326 
L 142.002973 172.435725 
L 145.746656 174.865984 
L 149.337874 177.516355 
L 152.763704 180.377301 
L 156.011814 183.438526 
L 159.070517 186.689011 
L 161.928804 190.11706 
L 164.576387 193.710334 
L 167.003739 197.455902 
L 169.202124 201.340284 
L 171.163631 205.3495 
L 172.881198 209.469121 
L 173.069484 209.967181 
L 172.052108 205.621348 
L 171.297157 201.222329 
L 170.807347 196.785956 
L 170.584441 192.328196 
L 170.629242 187.86509 
L 170.941587 183.412702 
L 171.520353 178.987055 
L 172.363458 174.604078 
L 173.467866 170.279543 
L 174.829603 166.029015 
L 176.443769 161.86779 
L 178.304554 157.810846 
L 180.405261 153.872782 
L 182.73833 150.067771 
L 185.295364 146.409507 
L 185.61489 145.983574 
L 182.491554 149.172005 
L 179.182647 152.167411 
L 175.700078 154.959011 
L 172.05638 157.536759 
L 168.264667 159.891377 
L 164.338584 162.014392 
L 160.292262 163.898164 
L 156.140262 165.535912 
L 151.897528 166.921742 
L 147.579329 168.050667 
L 143.201205 168.918624 
L 138.778913 169.52249 
L 134.328369 169.86009 
L 129.865589 169.930211 
L 125.406635 169.732599 
L 124.875787 169.69118 
L 129.241678 170.618709 
L 133.544095 171.806366 
L 137.767553 173.249876 
L 141.896852 174.944044 
L 145.917132 176.882773 
L 149.813924 179.059085 
L 153.573203 181.465148 
L 157.18144 184.092303 
L 160.625649 186.931095 
L 163.893436 189.971307 
L 166.973039 193.201998 
L 169.853375 196.611541 
L 172.524078 200.187665 
L 174.975537 203.9175 
L 177.198928 207.787622 
L 177.448523 208.257961 
L 175.891205 204.075129 
L 174.587508 199.806442 
L 173.542126 195.46726 
L 172.758819 191.073202 
L 172.240407 186.64008 
L 171.988755 182.18385 
L 172.00477 177.720548 
L 172.288393 173.266238 
L 172.838605 168.836951 
L 173.653424 164.448627 
L 174.729918 160.117059 
L 176.064213 155.857837 
L 177.651508 151.686289 
L 179.486089 147.617428 
L 181.561353 143.665897 
L 181.824613 143.203069 
L 179.128315 146.759935 
L 176.223586 150.148721 
L 173.120879 153.357229 
L 169.83136 156.373913 
L 166.366867 159.187916 
L 162.73987 161.78911 
L 158.963422 164.168134 
L 155.051113 166.316426 
L 151.017024 168.226255 
L 146.875674 169.890747 
L 142.641966 171.303912 
L 138.331137 172.460664 
L 133.958702 173.356839 
L 129.540397 173.989214 
L 125.092122 174.355511 
L 124.560289 174.381369 
L 129.008296 174.750898 
L 133.426141 175.386483 
L 137.797923 176.285836 
L 142.10791 177.44572 
L 146.34059 178.861961 
L 150.48073 180.529462 
L 154.51343 182.442221 
L 158.424177 184.593356 
L 162.198895 186.975124 
L 165.824001 189.578953 
L 169.286448 192.395472 
L 172.573774 195.414546 
L 175.674149 198.625308 
L 178.576415 202.016203 
L 181.270127 205.575028 
L 182.49487 207.181339 
L 186.2819 211.772633 
L 190.249503 216.208815 
L 194.391333 220.482786 
L 198.700763 224.587709 
L 203.170899 228.517018 
L 207.794589 232.264426 
L 212.564438 235.823937 
L 217.472814 239.189859 
L 222.511864 242.356806 
L 227.673528 245.319711 
L 232.949548 248.073835 
L 234.697403 248.928 
L 236.16 248.215176 
L 230.772641 245.68576 
L 225.288442 243.373805 
L 219.716176 241.283008 
L 214.064757 239.416715 
L 208.343227 237.777911 
L 202.56074 236.369218 
L 196.726544 235.19289 
L 190.849975 234.250808 
L 184.940434 233.54448 
L 179.007374 233.075036 
L 173.060287 232.843226 
L 167.108687 232.849422 
L 161.162095 233.093613 
L 155.230025 233.57541 
L 149.321967 234.29404 
L 143.447372 235.248355 
L 137.615639 236.436827 
L 131.836097 237.857556 
L 126.117991 239.508269 
L 120.470471 241.386325 
L 114.90257 243.488719 
L 109.423196 245.812087 
L 104.041115 248.352714 
L 102.895421 248.928 
L 97.535429 246.341097 
L 92.076275 243.970607 
L 87.36 242.126996 
L 92.89665 239.943631 
L 98.341561 237.540606 
L 103.686021 234.921764 
L 108.92148 232.091296 
L 114.039562 229.053729 
L 119.032081 225.813924 
L 123.891048 222.377062 
L 128.608691 218.748643 
L 133.177462 214.934471 
L 137.590053 210.940647 
L 141.839403 206.773562 
L 142.342167 206.257919 
L 145.182396 202.814895 
L 148.223973 199.548378 
L 151.455949 196.470124 
L 154.866694 193.591212 
L 158.443933 190.922002 
L 162.174792 188.472101 
L 166.045842 186.250326 
L 170.043153 184.264672 
L 174.15234 182.522286 
L 178.358612 181.029439 
L 182.646832 179.791503 
L 187.001567 178.812934 
L 191.407146 178.097253 
L 195.847711 177.647036 
L 198.841527 177.494534 
L 194.486173 176.518725 
L 190.197169 175.283507 
L 185.989951 173.793326 
L 181.879662 172.053544 
L 177.881093 170.070424 
L 174.008635 167.851103 
L 170.276225 165.403567 
L 166.697295 162.736625 
L 163.284726 159.859875 
L 160.050799 156.78367 
L 157.007153 153.519081 
L 154.164742 150.077858 
L 151.533795 146.472385 
L 149.123781 142.715637 
L 147.633658 140.114537 
L 148.733309 144.440284 
L 149.571591 148.824186 
L 150.145489 153.250467 
L 150.452937 157.703195 
L 150.492828 162.166348 
L 150.265019 166.623861 
L 149.770329 171.059692 
L 149.010539 175.457878 
L 147.988384 179.802589 
L 146.707542 184.07819 
L 145.172622 188.269292 
L 143.389149 192.360813 
L 141.363542 196.338027 
L 139.103089 200.186621 
L 137.457247 202.692095 
L 140.817852 199.754807 
L 144.34854 197.02432 
L 148.036606 194.510461 
L 151.868776 192.222276 
L 155.83126 190.168002 
L 159.909795 188.35503 
L 164.089704 186.789886 
L 168.355945 185.478202 
L 172.693162 184.4247 
L 177.085746 183.63317 
L 181.51789 183.106462 
L 185.973641 182.84647 
L 190.436965 182.854132 
L 194.891798 183.129418 
L 199.358553 183.488503 
L 205.309937 183.437515 
L 211.254523 183.148576 
L 217.182799 182.622148 
L 223.085281 181.859073 
L 228.952527 180.860572 
L 234.775151 179.628243 
L 236.16 179.299092 
L 243.535508 178.323083 
L 250.884314 177.163011 
L 258.201825 175.8196 
L 265.483468 174.29369 
L 272.724691 172.586235 
L 279.920969 170.698302 
L 287.067806 168.63107 
L 289.225584 167.96865 
L 284.518142 162.207512 
L 279.668158 156.565848 
L 274.678662 151.047184 
L 269.552774 145.654969 
L 264.293696 140.392573 
L 258.904715 135.263284 
L 253.389199 130.270309 
L 247.750596 125.416767 
L 241.992428 120.705693 
L 236.16 116.171622 
L 234.435227 110.475418 
L 232.484046 104.852743 
L 230.645761 100.128 
L 228.50417 105.680942 
L 226.58635 111.315084 
L 224.895371 117.021411 
L 223.433936 122.790795 
L 222.204384 128.614005 
L 221.208681 134.481727 
L 220.448422 140.384573 
L 219.924821 146.313099 
L 219.638718 152.257821 
L 219.590568 158.20923 
L 219.78045 164.157803 
L 220.208059 170.094025 
L 220.872712 176.008399 
L 221.773345 181.891463 
L 222.908518 187.733805 
L 224.276414 193.526079 
L 225.874845 199.259019 
L 227.701254 204.923453 
L 229.752719 210.510319 
L 232.025958 216.01068 
L 234.517334 221.415735 
L 236.16 224.696225 
L 233.536125 230.038215 
L 231.127972 235.480859 
L 228.939392 241.015451 
L 226.973888 246.633135 
L 226.242642 248.928 
L 224.368323 243.279238 
L 222.269613 237.709948 
L 219.94987 232.229038 
L 217.412804 226.845277 
L 214.662474 221.567279 
L 211.703281 216.403486 
L 208.539959 211.36216 
L 205.177567 206.451365 
L 201.621485 201.678959 
L 197.877403 197.052575 
L 194.159089 192.807471 
L 200.019929 193.842909 
L 205.917487 194.643148 
L 211.84233 195.206907 
L 217.784977 195.533285 
L 223.735923 195.62176 
L 229.685646 195.472189 
L 239.132361 194.891277 
L 246.555538 194.394128 
L 253.963968 193.711574 
L 261.353022 192.844042 
L 268.71808 191.792074 
L 276.05454 190.556327 
L 283.357817 189.137574 
L 290.623347 187.536702 
L 292.166753 187.172005 
L 297.652083 184.862734 
L 303.225372 182.774665 
L 308.877703 180.911138 
L 314.600034 179.275134 
L 320.383211 177.869272 
L 326.217981 176.695799 
L 332.09501 175.756594 
L 332.851624 175.653129 
L 327.091274 174.156483 
L 321.395382 172.430681 
L 315.773059 170.478484 
L 310.233301 168.303016 
L 304.78497 165.907757 
L 299.436781 163.296538 
L 294.197292 160.473538 
L 293.533353 160.09624 
L 293.533353 160.09624 
" style="fill:none;stroke:#1f77b4;stroke-linecap:square;stroke-width:1.5;"/>
   </g>
   <g id="patch_5">
    <path d="M 57.6 263.808 
L 57.6 85.248 
" style="fill:none;stroke:#000000;stroke-linecap:square;stroke-linejoin:miter;stroke-width:0.8;"/>
   </g>
   <g id="patch_6">
    <path d="M 414.72 263.808 
L 414.72 85.248 
" style="fill:none;stroke:#000000;stroke-linecap:square;stroke-linejoin:miter;stroke-width:0.8;"/>
   </g>
   <g id="patch_7">
    <path d="M 57.6 263.808 
L 414.72 263.808 
" style="fill:none;stroke:#000000;stroke-linecap:square;stroke-linejoin:miter;stroke-width:0.8;"/>
   </g>
   <g id="patch_8">
    <path d="M 57.6 85.248 
L 414.72 85.248 
" style="fill:none;stroke:#000000;stroke-linecap:square;stroke-linejoin:miter;stroke-width:0.8;"/>
   </g>
  </g>
 </g>
 <defs>
  <clipPath id="pb103b76543">
   <rect height="178.56" width="357.12" x="57.6" y="85.248"/>
  </clipPath>
 </defs>
</svg>
