<?xml version="1.0" encoding="utf-8" standalone="no"?>
<!DOCTYPE svg PUBLIC "-//W3C//DTD SVG 1.1//EN"
  "http://www.w3.org/Graphics/SVG/1.1/DTD/svg11.dtd">
<!-- Created with matplotlib (https://matplotlib.org/) -->
<svg height="345.6pt" version="1.1" viewBox="0 0 460.8 345.6" width="460.8pt" xmlns="http://www.w3.org/2000/svg" xmlns:xlink="http://www.w3.org/1999/xlink">
 <defs>
  <style type="text/css">
*{stroke-linecap:butt;stroke-linejoin:round;}
  </style>
 </defs>
 <g id="figure_1">
  <g id="patch_1">
   <path d="M 0 345.6 
L 460.8 345.6 
L 460.8 0 
L 0 0 
z
" style="fill:#ffffff;"/>
  </g>
  <g id="axes_1">
   <g id="patch_2">
    <path d="M 82.520165 307.584 
L 389.799835 307.584 
L 389.799835 41.472 
L 82.520165 41.472 
z
" style="fill:#ffffff;"/>
   </g>
   <g id="patch_3">
    <path clip-path="url(#pf82c6d0dc8)" d="M 236.16 225.741278 
C 249.74192 225.741278 262.769389 220.345124 272.373256 210.741256 
C 281.977124 201.137389 287.373278 188.10992 287.373278 174.528 
C 287.373278 160.94608 281.977124 147.918611 272.373256 138.314744 
C 262.769389 128.710876 249.74192 123.314722 236.16 123.314722 
C 222.57808 123.314722 209.550611 128.710876 199.946744 138.314744 
C 190.342876 147.918611 184.946722 160.94608 184.946722 174.528 
C 184.946722 188.10992 190.342876 201.137389 199.946744 210.741256 
C 209.550611 220.345124 222.57808 225.741278 236.16 225.741278 
z
" style="fill:#009900;fill-opacity:0.5;stroke:#009900;stroke-linejoin:miter;stroke-width:2;"/>
   </g>
   <g id="matplotlib.axis_1">
    <g id="xtick_1">
     <g id="line2d_1">
      <defs>
       <path d="M 0 0 
L 0 3.5 
" id="m9d03a17b73" style="stroke:#000000;stroke-width:0.8;"/>
      </defs>
      <g>
       <use style="stroke:#000000;stroke-width:0.8;" x="108.126804" xlink:href="#m9d03a17b73" y="307.584"/>
      </g>
     </g>
     <g id="text_1">
      <!-- −2 -->
      <defs>
       <path d="M 10.59375 35.5 
L 73.1875 35.5 
L 73.1875 27.203125 
L 10.59375 27.203125 
z
" id="DejaVuSans-8722"/>
       <path d="M 19.1875 8.296875 
L 53.609375 8.296875 
L 53.609375 0 
L 7.328125 0 
L 7.328125 8.296875 
Q 12.9375 14.109375 22.625 23.890625 
Q 32.328125 33.6875 34.8125 36.53125 
Q 39.546875 41.84375 41.421875 45.53125 
Q 43.3125 49.21875 43.3125 52.78125 
Q 43.3125 58.59375 39.234375 62.25 
Q 35.15625 65.921875 28.609375 65.921875 
Q 23.96875 65.921875 18.8125 64.3125 
Q 13.671875 62.703125 7.8125 59.421875 
L 7.8125 69.390625 
Q 13.765625 71.78125 18.9375 73 
Q 24.125 74.21875 28.421875 74.21875 
Q 39.75 74.21875 46.484375 68.546875 
Q 53.21875 62.890625 53.21875 53.421875 
Q 53.21875 48.921875 51.53125 44.890625 
Q 49.859375 40.875 45.40625 35.40625 
Q 44.1875 33.984375 37.640625 27.21875 
Q 31.109375 20.453125 19.1875 8.296875 
z
" id="DejaVuSans-50"/>
      </defs>
      <g transform="translate(100.755711 322.182437)scale(0.1 -0.1)">
       <use xlink:href="#DejaVuSans-8722"/>
       <use x="83.789062" xlink:href="#DejaVuSans-50"/>
      </g>
     </g>
    </g>
    <g id="xtick_2">
     <g id="line2d_2">
      <g>
       <use style="stroke:#000000;stroke-width:0.8;" x="172.143402" xlink:href="#m9d03a17b73" y="307.584"/>
      </g>
     </g>
     <g id="text_2">
      <!-- −1 -->
      <defs>
       <path d="M 12.40625 8.296875 
L 28.515625 8.296875 
L 28.515625 63.921875 
L 10.984375 60.40625 
L 10.984375 69.390625 
L 28.421875 72.90625 
L 38.28125 72.90625 
L 38.28125 8.296875 
L 54.390625 8.296875 
L 54.390625 0 
L 12.40625 0 
z
" id="DejaVuSans-49"/>
      </defs>
      <g transform="translate(164.772308 322.182437)scale(0.1 -0.1)">
       <use xlink:href="#DejaVuSans-8722"/>
       <use x="83.789062" xlink:href="#DejaVuSans-49"/>
      </g>
     </g>
    </g>
    <g id="xtick_3">
     <g id="line2d_3">
      <g>
       <use style="stroke:#000000;stroke-width:0.8;" x="236.16" xlink:href="#m9d03a17b73" y="307.584"/>
      </g>
     </g>
     <g id="text_3">
      <!-- 0 -->
      <defs>
       <path d="M 31.78125 66.40625 
Q 24.171875 66.40625 20.328125 58.90625 
Q 16.5 51.421875 16.5 36.375 
Q 16.5 21.390625 20.328125 13.890625 
Q 24.171875 6.390625 31.78125 6.390625 
Q 39.453125 6.390625 43.28125 13.890625 
Q 47.125 21.390625 47.125 36.375 
Q 47.125 51.421875 43.28125 58.90625 
Q 39.453125 66.40625 31.78125 66.40625 
z
M 31.78125 74.21875 
Q 44.046875 74.21875 50.515625 64.515625 
Q 56.984375 54.828125 56.984375 36.375 
Q 56.984375 17.96875 50.515625 8.265625 
Q 44.046875 -1.421875 31.78125 -1.421875 
Q 19.53125 -1.421875 13.0625 8.265625 
Q 6.59375 17.96875 6.59375 36.375 
Q 6.59375 54.828125 13.0625 64.515625 
Q 19.53125 74.21875 31.78125 74.21875 
z
" id="DejaVuSans-48"/>
      </defs>
      <g transform="translate(232.97875 322.182437)scale(0.1 -0.1)">
       <use xlink:href="#DejaVuSans-48"/>
      </g>
     </g>
    </g>
    <g id="xtick_4">
     <g id="line2d_4">
      <g>
       <use style="stroke:#000000;stroke-width:0.8;" x="300.176598" xlink:href="#m9d03a17b73" y="307.584"/>
      </g>
     </g>
     <g id="text_4">
      <!-- 1 -->
      <g transform="translate(296.995348 322.182437)scale(0.1 -0.1)">
       <use xlink:href="#DejaVuSans-49"/>
      </g>
     </g>
    </g>
    <g id="xtick_5">
     <g id="line2d_5">
      <g>
       <use style="stroke:#000000;stroke-width:0.8;" x="364.193196" xlink:href="#m9d03a17b73" y="307.584"/>
      </g>
     </g>
     <g id="text_5">
      <!-- 2 -->
      <g transform="translate(361.011946 322.182437)scale(0.1 -0.1)">
       <use xlink:href="#DejaVuSans-50"/>
      </g>
     </g>
    </g>
   </g>
   <g id="matplotlib.axis_2">
    <g id="ytick_1">
     <g id="line2d_6">
      <defs>
       <path d="M 0 0 
L -3.5 0 
" id="mf28cc3a548" style="stroke:#000000;stroke-width:0.8;"/>
      </defs>
      <g>
       <use style="stroke:#000000;stroke-width:0.8;" x="82.520165" xlink:href="#mf28cc3a548" y="302.561196"/>
      </g>
     </g>
     <g id="text_6">
      <!-- −2.0 -->
      <defs>
       <path d="M 10.6875 12.40625 
L 21 12.40625 
L 21 0 
L 10.6875 0 
z
" id="DejaVuSans-46"/>
      </defs>
      <g transform="translate(51.237353 306.360414)scale(0.1 -0.1)">
       <use xlink:href="#DejaVuSans-8722"/>
       <use x="83.789062" xlink:href="#DejaVuSans-50"/>
       <use x="147.412109" xlink:href="#DejaVuSans-46"/>
       <use x="179.199219" xlink:href="#DejaVuSans-48"/>
      </g>
     </g>
    </g>
    <g id="ytick_2">
     <g id="line2d_7">
      <g>
       <use style="stroke:#000000;stroke-width:0.8;" x="82.520165" xlink:href="#mf28cc3a548" y="270.552897"/>
      </g>
     </g>
     <g id="text_7">
      <!-- −1.5 -->
      <defs>
       <path d="M 10.796875 72.90625 
L 49.515625 72.90625 
L 49.515625 64.59375 
L 19.828125 64.59375 
L 19.828125 46.734375 
Q 21.96875 47.46875 24.109375 47.828125 
Q 26.265625 48.1875 28.421875 48.1875 
Q 40.625 48.1875 47.75 41.5 
Q 54.890625 34.8125 54.890625 23.390625 
Q 54.890625 11.625 47.5625 5.09375 
Q 40.234375 -1.421875 26.90625 -1.421875 
Q 22.3125 -1.421875 17.546875 -0.640625 
Q 12.796875 0.140625 7.71875 1.703125 
L 7.71875 11.625 
Q 12.109375 9.234375 16.796875 8.0625 
Q 21.484375 6.890625 26.703125 6.890625 
Q 35.15625 6.890625 40.078125 11.328125 
Q 45.015625 15.765625 45.015625 23.390625 
Q 45.015625 31 40.078125 35.4375 
Q 35.15625 39.890625 26.703125 39.890625 
Q 22.75 39.890625 18.8125 39.015625 
Q 14.890625 38.140625 10.796875 36.28125 
z
" id="DejaVuSans-53"/>
      </defs>
      <g transform="translate(51.237353 274.352116)scale(0.1 -0.1)">
       <use xlink:href="#DejaVuSans-8722"/>
       <use x="83.789062" xlink:href="#DejaVuSans-49"/>
       <use x="147.412109" xlink:href="#DejaVuSans-46"/>
       <use x="179.199219" xlink:href="#DejaVuSans-53"/>
      </g>
     </g>
    </g>
    <g id="ytick_3">
     <g id="line2d_8">
      <g>
       <use style="stroke:#000000;stroke-width:0.8;" x="82.520165" xlink:href="#mf28cc3a548" y="238.544598"/>
      </g>
     </g>
     <g id="text_8">
      <!-- −1.0 -->
      <g transform="translate(51.237353 242.343817)scale(0.1 -0.1)">
       <use xlink:href="#DejaVuSans-8722"/>
       <use x="83.789062" xlink:href="#DejaVuSans-49"/>
       <use x="147.412109" xlink:href="#DejaVuSans-46"/>
       <use x="179.199219" xlink:href="#DejaVuSans-48"/>
      </g>
     </g>
    </g>
    <g id="ytick_4">
     <g id="line2d_9">
      <g>
       <use style="stroke:#000000;stroke-width:0.8;" x="82.520165" xlink:href="#mf28cc3a548" y="206.536299"/>
      </g>
     </g>
     <g id="text_9">
      <!-- −0.5 -->
      <g transform="translate(51.237353 210.335518)scale(0.1 -0.1)">
       <use xlink:href="#DejaVuSans-8722"/>
       <use x="83.789062" xlink:href="#DejaVuSans-48"/>
       <use x="147.412109" xlink:href="#DejaVuSans-46"/>
       <use x="179.199219" xlink:href="#DejaVuSans-53"/>
      </g>
     </g>
    </g>
    <g id="ytick_5">
     <g id="line2d_10">
      <g>
       <use style="stroke:#000000;stroke-width:0.8;" x="82.520165" xlink:href="#mf28cc3a548" y="174.528"/>
      </g>
     </g>
     <g id="text_10">
      <!-- 0.0 -->
      <g transform="translate(59.61704 178.327219)scale(0.1 -0.1)">
       <use xlink:href="#DejaVuSans-48"/>
       <use x="63.623047" xlink:href="#DejaVuSans-46"/>
       <use x="95.410156" xlink:href="#DejaVuSans-48"/>
      </g>
     </g>
    </g>
    <g id="ytick_6">
     <g id="line2d_11">
      <g>
       <use style="stroke:#000000;stroke-width:0.8;" x="82.520165" xlink:href="#mf28cc3a548" y="142.519701"/>
      </g>
     </g>
     <g id="text_11">
      <!-- 0.5 -->
      <g transform="translate(59.61704 146.31892)scale(0.1 -0.1)">
       <use xlink:href="#DejaVuSans-48"/>
       <use x="63.623047" xlink:href="#DejaVuSans-46"/>
       <use x="95.410156" xlink:href="#DejaVuSans-53"/>
      </g>
     </g>
    </g>
    <g id="ytick_7">
     <g id="line2d_12">
      <g>
       <use style="stroke:#000000;stroke-width:0.8;" x="82.520165" xlink:href="#mf28cc3a548" y="110.511402"/>
      </g>
     </g>
     <g id="text_12">
      <!-- 1.0 -->
      <g transform="translate(59.61704 114.310621)scale(0.1 -0.1)">
       <use xlink:href="#DejaVuSans-49"/>
       <use x="63.623047" xlink:href="#DejaVuSans-46"/>
       <use x="95.410156" xlink:href="#DejaVuSans-48"/>
      </g>
     </g>
    </g>
    <g id="ytick_8">
     <g id="line2d_13">
      <g>
       <use style="stroke:#000000;stroke-width:0.8;" x="82.520165" xlink:href="#mf28cc3a548" y="78.503103"/>
      </g>
     </g>
     <g id="text_13">
      <!-- 1.5 -->
      <g transform="translate(59.61704 82.302322)scale(0.1 -0.1)">
       <use xlink:href="#DejaVuSans-49"/>
       <use x="63.623047" xlink:href="#DejaVuSans-46"/>
       <use x="95.410156" xlink:href="#DejaVuSans-53"/>
      </g>
     </g>
    </g>
    <g id="ytick_9">
     <g id="line2d_14">
      <g>
       <use style="stroke:#000000;stroke-width:0.8;" x="82.520165" xlink:href="#mf28cc3a548" y="46.494804"/>
      </g>
     </g>
     <g id="text_14">
      <!-- 2.0 -->
      <g transform="translate(59.61704 50.294023)scale(0.1 -0.1)">
       <use xlink:href="#DejaVuSans-50"/>
       <use x="63.623047" xlink:href="#DejaVuSans-46"/>
       <use x="95.410156" xlink:href="#DejaVuSans-48"/>
      </g>
     </g>
    </g>
   </g>
   <g id="line2d_15">
    <path clip-path="url(#pf82c6d0dc8)" d="M 300.176598 63.648 
L 172.143402 63.648 
" style="fill:none;stroke:#009900;stroke-linecap:square;stroke-width:2;"/>
   </g>
   <g id="line2d_16">
    <path clip-path="url(#pf82c6d0dc8)" d="M 172.143402 63.648 
L 108.126804 174.528 
" style="fill:none;stroke:#009900;stroke-linecap:square;stroke-width:2;"/>
   </g>
   <g id="line2d_17">
    <path clip-path="url(#pf82c6d0dc8)" d="M 108.126804 174.528 
L 172.143402 285.408 
" style="fill:none;stroke:#009900;stroke-linecap:square;stroke-width:2;"/>
   </g>
   <g id="line2d_18">
    <path clip-path="url(#pf82c6d0dc8)" d="M 172.143402 285.408 
L 300.176598 285.408 
" style="fill:none;stroke:#009900;stroke-linecap:square;stroke-width:2;"/>
   </g>
   <g id="line2d_19">
    <path clip-path="url(#pf82c6d0dc8)" d="M 300.176598 285.408 
L 364.193196 174.528 
" style="fill:none;stroke:#009900;stroke-linecap:square;stroke-width:2;"/>
   </g>
   <g id="line2d_20">
    <path clip-path="url(#pf82c6d0dc8)" d="M 364.193196 174.528 
L 300.176598 63.648 
" style="fill:none;stroke:#009900;stroke-linecap:square;stroke-width:2;"/>
   </g>
   <g id="line2d_21">
    <path clip-path="url(#pf82c6d0dc8)" d="M 308.212242 152.085513 
L 308.376772 146.96717 
L 308.336492 141.846342 
L 308.091465 136.731221 
L 307.642084 131.62999 
L 306.989068 126.550809 
L 306.133461 121.501806 
L 305.076632 116.491056 
L 303.820272 111.526576 
L 302.366391 106.616308 
L 300.717314 101.768107 
L 298.87568 96.989731 
L 296.844435 92.288821 
L 294.626829 87.672901 
L 292.226409 83.149353 
L 289.647015 78.725415 
L 286.892774 74.408163 
L 283.968092 70.204506 
L 280.877649 66.121166 
L 278.876507 63.648 
L 275.685563 67.653293 
L 272.657339 71.782986 
L 269.796682 76.030473 
L 267.108167 80.388957 
L 264.596095 84.851468 
L 262.264486 89.410865 
L 260.117069 94.059854 
L 258.157279 98.790998 
L 256.388253 103.596729 
L 254.812819 108.469358 
L 253.433499 113.401089 
L 252.252499 118.384034 
L 251.271708 123.410221 
L 250.926543 125.489759 
L 252.96182 120.790594 
L 254.807552 116.013799 
L 256.460787 111.167015 
L 257.91888 106.257996 
L 259.179499 101.294595 
L 260.240625 96.284754 
L 261.100563 91.236486 
L 261.757936 86.157868 
L 262.211693 81.057024 
L 262.461108 75.942115 
L 262.505781 70.821324 
L 262.345641 65.702842 
L 262.223615 63.648 
L 262.182126 64.286819 
L 261.965296 69.403213 
L 261.953241 74.524186 
L 262.14598 79.641544 
L 262.543204 84.747101 
L 263.144278 89.83269 
L 263.948241 94.890174 
L 264.953806 99.911462 
L 266.159365 104.888523 
L 267.562989 109.813392 
L 269.162433 114.678193 
L 270.955137 119.475141 
L 272.938234 124.196564 
L 275.108551 128.834906 
L 277.462616 133.38275 
L 279.996664 137.832818 
L 282.70664 142.177991 
L 285.588208 146.411319 
L 288.63676 150.526028 
L 291.847418 154.515537 
L 295.215045 158.373462 
L 298.734255 162.093632 
L 302.399417 165.670096 
L 306.204667 169.097131 
L 310.143918 172.369256 
L 314.210869 175.481235 
L 318.399012 178.428091 
L 322.701648 181.205108 
L 327.111894 183.807844 
L 331.622693 186.232136 
L 336.22683 188.474105 
L 340.916939 190.530164 
L 345.685517 192.397024 
L 350.524935 194.071698 
L 352.542974 194.706776 
L 348.728897 191.289566 
L 344.78122 188.027612 
L 340.706257 184.926133 
L 336.510527 181.990089 
L 332.200742 179.224178 
L 327.783799 176.632825 
L 323.266762 174.220176 
L 318.656857 171.99009 
L 313.961461 169.946134 
L 309.188084 168.091579 
L 304.344363 166.429392 
L 299.438046 164.962232 
L 294.476983 163.692445 
L 289.469111 162.622064 
L 285.810021 161.971117 
L 289.8017 158.763158 
L 293.661902 155.398141 
L 297.384452 151.881448 
L 300.963393 148.218707 
L 304.393002 144.415775 
L 307.66779 140.478738 
L 310.782519 136.413893 
L 313.732207 132.227744 
L 316.512134 127.926987 
L 319.117852 123.518503 
L 321.545194 119.009344 
L 323.790276 114.406724 
L 325.849507 109.718007 
L 326.23437 108.781385 
L 321.148803 108.180133 
L 316.043259 107.782729 
L 310.925908 107.589811 
L 305.804935 107.601687 
L 300.688534 107.818337 
L 295.584889 108.239416 
L 290.502164 108.864249 
L 285.448492 109.691837 
L 280.431958 110.720856 
L 275.460585 111.94966 
L 270.542329 113.376283 
L 265.685056 114.998442 
L 260.896537 116.813543 
L 256.184433 118.818682 
L 251.556283 121.010651 
L 247.01949 123.385943 
L 245.580354 124.188584 
L 242.259392 120.290416 
L 238.785201 116.52817 
L 235.163339 112.907863 
L 231.399601 109.435288 
L 227.500008 106.116 
L 223.470797 102.95531 
L 219.318416 99.958273 
L 215.049506 97.129684 
L 210.670898 94.474069 
L 206.189596 91.995675 
L 201.612769 89.698469 
L 196.94774 87.586124 
L 192.20197 85.66202 
L 187.383054 83.929235 
L 182.498698 82.390542 
L 177.556719 81.048402 
L 172.565021 79.904961 
L 167.531591 78.96205 
L 163.640903 78.37476 
L 166.853167 82.362975 
L 170.222348 86.219544 
L 173.743056 89.938297 
L 177.409657 93.513284 
L 181.216288 96.938787 
L 185.156856 100.209325 
L 189.22506 103.319666 
L 193.41439 106.264834 
L 197.718144 109.040119 
L 202.129437 111.641079 
L 206.641212 114.063554 
L 211.246252 116.303668 
L 215.937189 118.357838 
L 220.706518 120.222777 
L 225.54661 121.895502 
L 230.449722 123.373338 
L 231.131965 123.562141 
L 235.665015 121.179715 
L 240.099168 118.61792 
L 244.427329 115.880856 
L 248.642575 112.9729 
L 252.738162 109.898706 
L 256.707538 106.663191 
L 260.544352 103.271532 
L 264.242468 99.729153 
L 267.795968 96.041723 
L 271.199168 92.215141 
L 274.446623 88.255528 
L 277.533138 84.169218 
L 280.453775 79.962749 
L 283.203863 75.642851 
L 285.779001 71.216434 
L 288.175069 66.69058 
L 289.658653 63.648 
L 291.934238 68.235616 
L 294.391457 72.728563 
L 297.026382 77.119653 
L 299.834795 81.401862 
L 302.812205 85.56834 
L 305.953848 89.61242 
L 309.254698 93.527632 
L 312.709474 97.307715 
L 316.31265 100.946619 
L 320.058461 104.438524 
L 323.940914 107.777844 
L 327.124362 110.322897 
L 327.914425 115.382571 
L 328.906188 120.406604 
L 330.098066 125.386958 
L 331.488152 130.315666 
L 333.074221 135.184843 
L 334.853737 139.9867 
L 336.823853 144.713553 
L 338.981416 149.357842 
L 341.322976 153.912137 
L 343.844786 158.369152 
L 346.542812 162.721755 
L 349.412737 166.962985 
L 352.449971 171.086056 
L 355.649654 175.084372 
L 359.006667 178.951536 
L 360.624775 180.708687 
L 355.616245 179.641385 
L 350.569041 178.775225 
L 345.491237 178.111592 
L 340.390956 177.651547 
L 335.276359 177.395828 
L 330.155626 177.344842 
L 325.036951 177.498672 
L 319.928521 177.857072 
L 314.83851 178.419467 
L 309.77506 179.184959 
L 304.746272 180.152322 
L 299.760191 181.320009 
L 294.824793 182.686153 
L 289.947974 184.248567 
L 286.15912 185.613478 
L 289.807371 189.207191 
L 293.596414 192.652137 
L 297.520186 195.942807 
L 301.572412 199.073936 
L 305.746609 202.040514 
L 310.036097 204.837796 
L 314.434017 207.461307 
L 318.93333 209.906849 
L 323.526841 212.170511 
L 328.207199 214.248671 
L 332.966918 216.138003 
L 337.798383 217.835487 
L 338.970543 218.214916 
L 335.117023 214.842249 
L 331.131714 211.626379 
L 327.020993 208.572452 
L 322.791435 205.685353 
L 318.449807 202.9697 
L 314.003055 200.429838 
L 309.458293 198.06983 
L 304.82279 195.893453 
L 300.103964 193.904186 
L 295.309363 192.105214 
L 290.446657 190.499414 
L 285.278681 189.024727 
L 285.887446 189.222759 
L 290.791655 190.696947 
L 295.750894 191.97384 
L 300.757227 193.051395 
L 305.802647 193.927888 
L 310.879082 194.601916 
L 315.97841 195.072403 
L 321.092473 195.338594 
L 326.21309 195.400065 
L 331.33207 195.256716 
L 336.441223 194.908778 
L 341.532375 194.356806 
L 346.597381 193.601683 
L 351.62814 192.644619 
L 354.041735 192.110846 
L 352.448862 187.24389 
L 350.662637 182.444525 
L 348.685917 177.720429 
L 346.521866 173.07916 
L 344.173943 168.528142 
L 341.645907 164.074656 
L 338.941801 159.725828 
L 336.065951 155.488613 
L 333.022958 151.369791 
L 329.817691 147.37595 
L 326.455276 143.513481 
L 322.941093 139.788562 
L 319.280764 136.207153 
L 315.480145 132.774982 
L 311.545315 129.497541 
L 307.482571 126.380073 
L 303.29841 123.427565 
L 298.999528 120.64474 
L 294.592801 118.036051 
L 290.085279 115.605671 
L 285.484174 113.357487 
L 280.796845 111.295097 
L 276.030792 109.421799 
L 271.19364 107.740592 
L 266.293127 106.254163 
L 261.337092 104.964892 
L 256.333464 103.874841 
L 251.290248 102.985753 
L 246.215512 102.299052 
L 241.117375 101.815835 
L 236.003992 101.536876 
L 230.883544 101.46262 
L 225.764223 101.593187 
L 220.654217 101.928368 
L 215.561703 102.467627 
L 210.494827 103.210101 
L 205.461695 104.154601 
L 200.470358 105.299618 
L 195.528803 106.643319 
L 190.644934 108.183555 
L 185.826565 109.917862 
L 181.081403 111.843464 
L 176.417041 113.957282 
L 171.84094 116.255934 
L 167.360421 118.735743 
L 162.982652 121.392741 
L 158.714636 124.222678 
L 154.563201 127.221026 
L 150.534989 130.382989 
L 146.636444 133.703508 
L 142.873803 137.177272 
L 139.253085 140.798722 
L 135.780082 144.562066 
L 132.460351 148.461282 
L 129.299203 152.490133 
L 126.301694 156.642174 
L 123.472621 160.910762 
L 120.816508 165.289069 
L 118.337605 169.770089 
L 116.039879 174.346655 
L 113.927004 179.011444 
L 112.587808 182.254684 
L 117.668385 182.896741 
L 122.770574 183.335116 
L 127.886211 183.569106 
L 133.007114 183.598338 
L 138.12509 183.422766 
L 143.231951 183.04267 
L 148.319527 182.458657 
L 153.37968 181.671663 
L 158.404313 180.682946 
L 163.385389 179.494089 
L 168.314939 178.106992 
L 173.185077 176.523876 
L 177.988012 174.747272 
L 182.71606 172.780024 
L 185.022756 171.738341 
L 180.586466 169.180251 
L 176.051427 166.801611 
L 171.424896 164.606227 
L 166.714273 162.597612 
L 161.927095 160.778977 
L 157.071021 159.153234 
L 152.153818 157.722982 
L 147.183354 156.490509 
L 142.16758 155.457788 
L 137.11452 154.626471 
L 132.032259 153.997887 
L 126.928925 153.573042 
L 121.812685 153.352616 
L 120.366952 153.327443 
L 123.066997 157.678794 
L 125.93889 161.918692 
L 128.978037 166.040353 
L 132.179575 170.037183 
L 135.538383 173.902789 
L 139.049087 177.630987 
L 142.706072 181.215812 
L 146.503485 184.651529 
L 150.435254 187.932641 
L 154.495087 191.053901 
L 158.676489 194.010313 
L 162.972772 196.797149 
L 167.377062 199.409951 
L 171.882313 201.844538 
L 176.481318 204.097016 
L 181.166719 206.16378 
L 185.931021 208.041526 
L 190.766602 209.727248 
L 195.665726 211.21825 
L 200.620555 212.512147 
L 202.227578 212.886709 
L 204.054796 217.670617 
L 206.071857 222.37763 
L 208.275536 227.000216 
L 210.662306 231.530981 
L 213.228349 235.962676 
L 215.96956 240.288212 
L 218.881554 244.500669 
L 221.959672 248.593308 
L 225.198989 252.559581 
L 228.594324 256.393144 
L 232.140245 260.087863 
L 235.831079 263.637827 
L 239.660921 267.037358 
L 243.623645 270.281017 
L 247.71291 273.363615 
L 251.922176 276.280219 
L 256.244708 279.026166 
L 260.673591 281.59706 
L 265.201739 283.98879 
L 268.115219 285.408 
L 272.702452 283.131643 
L 277.194985 280.673666 
L 281.585631 278.038003 
L 285.867368 275.228868 
L 290.033343 272.250757 
L 294.076894 269.108433 
L 297.991551 265.806924 
L 301.771052 262.351511 
L 305.409349 258.747722 
L 308.900623 255.001323 
L 312.239289 251.118307 
L 315.420005 247.104886 
L 318.437682 242.96748 
L 321.287494 238.712709 
L 323.964881 234.34738 
L 326.465559 229.878475 
L 328.785528 225.313144 
L 330.921078 220.658692 
L 332.86879 215.922563 
L 334.62555 211.112334 
L 336.188547 206.235702 
L 337.555281 201.300467 
L 338.723564 196.314526 
L 339.691529 191.285853 
L 340.457626 186.222495 
L 341.02063 181.132551 
L 341.37964 176.024164 
L 341.534081 170.905507 
L 341.483708 165.784769 
L 341.2286 160.670141 
L 340.769166 155.569805 
L 340.106139 150.491922 
L 339.240583 145.444614 
L 338.17388 140.435957 
L 336.907737 135.473963 
L 335.44418 130.56657 
L 333.785551 125.72163 
L 331.934503 120.946892 
L 329.893996 116.249996 
L 327.667296 111.638455 
L 325.257965 107.119647 
L 322.669856 102.700801 
L 319.907112 98.388987 
L 316.97415 94.191102 
L 313.875664 90.113862 
L 310.61661 86.16379 
L 307.202203 82.347204 
L 303.637904 78.670212 
L 299.929415 75.138694 
L 296.08267 71.758302 
L 292.103822 68.534442 
L 287.999237 65.472273 
L 285.380725 63.648 
L 281.201094 66.606916 
L 277.143131 69.730606 
L 273.213329 73.014073 
L 269.417973 76.452064 
L 265.763137 80.039078 
L 262.254666 83.769377 
L 258.898173 87.636994 
L 255.699029 91.635741 
L 252.662352 95.759222 
L 249.792998 100.000838 
L 247.095559 104.353806 
L 244.57435 108.81116 
L 242.233404 113.36577 
L 240.076467 118.01035 
L 238.106989 122.73747 
L 237.870461 123.343293 
L 236.245608 118.486921 
L 234.427851 113.69941 
L 232.420099 108.988419 
L 230.225563 104.361485 
L 227.847755 99.826011 
L 225.290479 95.389251 
L 222.557825 91.058304 
L 219.654165 86.840098 
L 216.584144 82.741381 
L 213.352674 78.768712 
L 209.964925 74.928444 
L 206.426315 71.226722 
L 202.742507 67.669468 
L 198.919393 64.262372 
L 198.196197 63.648 
L 194.347936 67.026667 
L 190.637864 70.556521 
L 187.071916 74.231915 
L 183.655798 78.046969 
L 180.394973 81.995579 
L 177.294659 86.071429 
L 174.359815 90.267999 
L 171.595137 94.578574 
L 169.005048 98.996258 
L 166.59369 103.513985 
L 164.364922 108.124527 
L 162.32231 112.820508 
L 160.46912 117.594415 
L 158.808318 122.438611 
L 157.342561 127.345347 
L 156.074194 132.306773 
L 155.005245 137.314952 
L 154.137425 142.36187 
L 153.472122 147.439456 
L 153.0104 152.539585 
L 152.752998 157.654098 
L 152.700329 162.774814 
L 152.852475 167.893539 
L 153.209194 173.002086 
L 153.769916 178.092282 
L 154.533742 183.155984 
L 155.499451 188.18509 
L 156.665499 193.171555 
L 158.030019 198.107402 
L 159.590829 202.984735 
L 161.345432 207.79575 
L 163.29102 212.532752 
L 165.424482 217.188162 
L 167.742404 221.754532 
L 170.241078 226.224558 
L 172.916507 230.591088 
L 175.76441 234.847136 
L 178.780232 238.985895 
L 181.959148 243.000742 
L 185.296072 246.885255 
L 188.785666 250.633219 
L 192.422347 254.238639 
L 196.200298 257.695746 
L 200.113474 260.99901 
L 204.155615 264.143147 
L 208.320255 267.123126 
L 212.600731 269.934181 
L 216.990195 272.571813 
L 221.481625 275.031804 
L 226.067836 277.310218 
L 230.741491 279.40341 
L 235.495113 281.308031 
L 240.321097 283.021035 
L 245.211723 284.53968 
L 248.370204 285.408 
L 253.298079 284.014966 
L 258.166306 282.425983 
L 262.967097 280.643594 
L 267.692771 278.670651 
L 272.335769 276.510309 
L 276.888661 274.166025 
L 281.344166 271.641549 
L 285.695155 268.940919 
L 289.934667 266.068457 
L 294.05592 263.028756 
L 298.05232 259.826682 
L 301.917476 256.467355 
L 305.645202 252.95615 
L 309.229536 249.298685 
L 312.664743 245.50081 
L 315.945327 241.568601 
L 319.066042 237.508349 
L 322.021893 233.32655 
L 324.808152 229.029893 
L 327.420363 224.625252 
L 329.854345 220.119674 
L 332.106205 215.520367 
L 334.172341 210.834688 
L 336.049447 206.070134 
L 337.73452 201.234327 
L 339.224864 196.335003 
L 340.518096 191.38 
L 341.612146 186.377246 
L 342.505264 181.334742 
L 343.196021 176.260557 
L 343.683312 171.162807 
L 343.966358 166.049649 
L 344.044706 160.929262 
L 343.91823 155.809838 
L 343.587133 150.699566 
L 343.051945 145.606622 
L 342.313521 140.539154 
L 341.373043 135.505269 
L 341.205919 134.712869 
L 337.337835 131.356915 
L 333.338642 128.158328 
L 329.214739 125.122224 
L 324.972723 122.253461 
L 320.61938 119.556628 
L 316.161675 117.03604 
L 311.606738 114.695728 
L 306.961858 112.539437 
L 302.234465 110.570617 
L 297.432121 108.792417 
L 292.562509 107.207682 
L 287.63342 105.818947 
L 282.65274 104.628434 
L 277.628435 103.638047 
L 272.568545 102.849371 
L 267.481163 102.263668 
L 262.374429 101.881874 
L 257.256512 101.7046 
L 252.135599 101.73213 
L 247.019884 101.96442 
L 241.91755 102.401099 
L 236.836759 103.041467 
L 231.785641 103.8845 
L 226.772275 104.92885 
L 221.804683 106.172845 
L 216.89081 107.614496 
L 212.038519 109.251497 
L 207.255571 111.081228 
L 202.549619 113.100762 
L 197.928191 115.306869 
L 193.398681 117.696019 
L 188.968334 120.26439 
L 184.644239 123.007873 
L 180.433312 125.922079 
L 176.342291 129.002346 
L 172.37772 132.243747 
L 168.545942 135.641096 
L 164.853086 139.188957 
L 161.305061 142.881655 
L 157.907543 146.713283 
L 154.665966 150.67771 
L 151.585517 154.768595 
L 148.671124 158.979392 
L 145.927449 163.303366 
L 143.358882 167.733599 
L 140.969531 172.263003 
L 138.763219 176.884333 
L 136.743476 181.590196 
L 134.913533 186.373062 
L 133.276318 191.225281 
L 131.834449 196.139089 
L 130.590233 201.106627 
L 129.545661 206.119946 
L 128.821864 210.372895 
L 133.629078 212.137887 
L 138.503027 213.709231 
L 143.435914 215.084411 
L 148.419849 216.261229 
L 153.446857 217.237801 
L 158.508896 218.012566 
L 163.597869 218.584283 
L 168.705633 218.952038 
L 173.824018 219.115242 
L 178.944836 219.073636 
L 184.059893 218.827285 
L 189.161008 218.376583 
L 194.240018 217.722251 
L 199.2888 216.865336 
L 204.299276 215.80721 
L 205.472557 215.528984 
L 205.821684 220.638056 
L 206.374841 225.729079 
L 207.131142 230.79391 
L 208.089376 235.824446 
L 209.248013 240.812638 
L 210.605196 245.750508 
L 212.158757 250.630154 
L 213.906208 255.443772 
L 215.844756 260.18366 
L 217.971297 264.842235 
L 220.282431 269.412045 
L 222.77446 273.885779 
L 225.443397 278.256279 
L 228.284972 282.516555 
L 230.358488 285.408 
L 233.317349 281.22833 
L 236.106701 276.93368 
L 238.722082 272.530921 
L 241.159307 268.027097 
L 243.414478 263.429412 
L 245.483986 258.745222 
L 247.364522 253.982021 
L 249.053076 249.147428 
L 250.546947 244.249178 
L 251.843746 239.295108 
L 252.941397 234.293142 
L 253.838145 229.251282 
L 254.532556 224.177596 
L 254.742307 222.251136 
L 258.63493 225.578597 
L 262.657501 228.747732 
L 266.803587 231.753473 
L 271.066553 234.59101 
L 275.439581 237.255804 
L 279.915675 239.743592 
L 284.487673 242.050394 
L 289.148261 244.17252 
L 293.889984 246.106574 
L 298.705255 247.849464 
L 303.586372 249.398399 
L 308.525526 250.750903 
L 313.514814 251.904812 
L 318.931937 252.922799 
L 315.602358 249.031989 
L 312.11985 245.277439 
L 308.489987 241.665156 
L 304.718574 238.200918 
L 300.811645 234.890267 
L 296.775451 231.7385 
L 292.616448 228.750658 
L 288.34129 225.931522 
L 283.956816 223.285602 
L 279.470041 220.817131 
L 274.888142 218.530057 
L 270.21845 216.42804 
L 267.265711 215.212574 
L 267.943479 220.288511 
L 268.823687 225.333284 
L 269.904929 230.338823 
L 271.185473 235.29712 
L 272.663273 240.200242 
L 274.335963 245.040346 
L 276.200867 249.809689 
L 278.255003 254.500641 
L 280.495084 259.105697 
L 282.917526 263.61749 
L 285.518454 268.028803 
L 288.293706 272.332577 
L 291.238844 276.521928 
L 294.349156 280.590154 
L 297.619665 284.530747 
L 298.384874 285.408 
L 301.691076 281.497306 
L 304.528645 277.870033 
L 306.434479 273.116897 
L 308.148713 268.29135 
L 309.668606 263.401112 
L 310.991725 258.454006 
L 312.115955 253.457947 
L 313.039496 248.420927 
L 313.760872 243.351004 
L 314.278927 238.256289 
L 314.592835 233.144932 
L 314.702091 228.025112 
L 314.606521 222.905017 
L 314.306279 217.79284 
L 313.801845 212.696758 
L 313.094025 207.624925 
L 312.183952 202.585454 
L 311.073082 197.586407 
L 309.763191 192.635782 
L 308.256377 187.741498 
L 306.555048 182.911386 
L 304.661928 178.153172 
L 302.580044 173.47447 
L 300.312727 168.882762 
L 297.863604 164.385396 
L 295.236594 159.989567 
L 292.435899 155.702305 
L 289.465999 151.530472 
L 286.331646 147.480739 
L 283.037854 143.559587 
L 279.589893 139.773287 
L 275.993278 136.127898 
L 272.253763 132.629251 
L 268.377331 129.282943 
L 264.370183 126.094328 
L 260.238729 123.068507 
L 255.98958 120.21032 
L 251.629533 117.52434 
L 247.165562 115.014864 
L 242.60481 112.685906 
L 237.954573 110.541193 
L 233.22229 108.584155 
L 228.415531 106.817924 
L 223.541987 105.245324 
L 218.609454 103.868872 
L 213.625823 102.69077 
L 208.599067 101.712902 
L 203.537228 100.936833 
L 198.448403 100.363804 
L 193.340733 99.994733 
L 188.22239 99.830209 
L 183.101562 99.870496 
L 177.986442 100.115529 
L 172.885211 100.564916 
L 167.806032 101.217938 
L 162.757029 102.073552 
L 157.74628 103.130387 
L 152.781802 104.386753 
L 147.76363 105.875005 
L 148.955254 110.85542 
L 150.34509 115.784198 
L 151.930912 120.653456 
L 153.710183 125.455403 
L 155.680059 130.182357 
L 157.837386 134.826756 
L 160.178714 139.381169 
L 162.700297 143.838312 
L 165.398102 148.191053 
L 168.267812 152.432428 
L 171.304836 156.555654 
L 174.504315 160.554132 
L 177.861132 164.421468 
L 181.369917 168.151472 
L 185.022877 171.736127 
L 180.999064 174.903686 
L 177.105138 178.22962 
L 173.347328 181.70861 
L 169.731647 185.335089 
L 166.263879 189.103256 
L 162.94957 193.007083 
L 159.794025 197.040324 
L 156.80229 201.196527 
L 153.979152 205.469043 
L 151.329127 209.851037 
L 148.856455 214.335499 
L 146.565091 218.915253 
L 144.458702 223.582975 
L 142.540656 228.331196 
L 141.24501 231.890415 
L 146.292802 232.753143 
L 151.371055 233.413324 
L 156.471648 233.8699 
L 161.586418 234.122142 
L 166.707184 234.169647 
L 171.825754 234.012337 
L 176.933938 233.650464 
L 182.023566 233.084608 
L 187.086494 232.315674 
L 192.114623 231.344892 
L 197.09991 230.173815 
L 202.034378 228.804317 
L 206.910134 227.238588 
L 211.719377 225.479133 
L 216.454414 223.528766 
L 218.520018 222.607423 
L 220.789428 227.198096 
L 223.240601 231.694345 
L 225.869615 236.088976 
L 228.672265 240.37496 
L 231.644067 244.545439 
L 234.780266 248.593743 
L 238.075845 252.513393 
L 241.525532 256.29812 
L 245.123809 259.941869 
L 248.864919 263.43881 
L 252.742876 266.78335 
L 256.751478 269.970138 
L 260.88431 272.994075 
L 265.134762 275.850325 
L 269.496034 278.534317 
L 273.961148 281.041757 
L 278.522961 283.368635 
L 282.938401 285.408 
L 287.585299 283.256061 
L 292.142425 280.920017 
L 296.60249 278.403606 
L 300.958357 275.710852 
L 305.203058 272.846064 
L 309.061607 270.018713 
L 309.610811 264.927262 
L 309.955972 259.817921 
L 310.096538 254.698864 
L 310.032284 249.578281 
L 309.763312 244.464363 
L 309.290054 239.365292 
L 308.613265 234.289225 
L 307.73403 229.244282 
L 306.653753 224.238535 
L 305.374165 219.279991 
L 303.897311 214.376584 
L 302.225554 209.536157 
L 300.361569 204.766454 
L 298.308338 200.075106 
L 296.069146 195.469619 
L 293.647574 190.957358 
L 291.047497 186.545545 
L 288.273074 182.241235 
L 287.0319 180.431362 
L 290.77868 176.940496 
L 294.382866 173.302592 
L 297.838691 169.523469 
L 301.140628 165.609173 
L 304.283393 161.565965 
L 307.26196 157.400314 
L 310.071562 153.118885 
L 312.707705 148.728526 
L 315.166172 144.236262 
L 317.44303 139.649278 
L 319.534636 134.974913 
L 321.437644 130.220645 
L 323.149011 125.394081 
L 324.665997 120.50294 
L 325.986176 115.555049 
L 327.147151 110.362368 
L 322.261619 108.827413 
L 317.318614 107.489056 
L 312.326043 106.349436 
L 307.291892 105.410378 
L 302.224216 104.673383 
L 297.131122 104.139631 
L 292.020757 103.809975 
L 286.901297 103.684942 
L 281.780932 103.764734 
L 276.667854 104.049222 
L 271.570242 104.537951 
L 266.496252 105.230139 
L 261.454 106.124679 
L 256.451554 107.220139 
L 251.496916 108.514768 
L 246.598013 110.006494 
L 241.762681 111.69293 
L 236.998656 113.57138 
L 232.31356 115.638837 
L 227.714888 117.891994 
L 223.209997 120.327246 
L 218.806093 122.940698 
L 214.510222 125.728169 
L 210.329256 128.6852 
L 206.269885 131.807059 
L 202.338601 135.088752 
L 198.541695 138.52503 
L 194.88524 142.110395 
L 191.375087 145.839111 
L 188.01685 149.705213 
L 184.815902 153.702517 
L 181.777365 157.824627 
L 178.906098 162.064948 
L 176.206695 166.416698 
L 173.683475 170.872915 
L 171.340475 175.426468 
L 169.181443 180.070075 
L 167.209832 184.796305 
L 165.428797 189.597598 
L 163.841187 194.466273 
L 162.449542 199.394541 
L 161.256089 204.374518 
L 160.262736 209.398237 
L 159.471073 214.457661 
L 158.882366 219.544696 
L 158.497557 224.651205 
L 158.317262 229.769016 
L 158.341769 234.889944 
L 158.571039 240.005795 
L 159.004704 245.108387 
L 159.642073 250.189554 
L 160.482124 255.241169 
L 161.523513 260.255151 
L 162.764576 265.223477 
L 164.203326 270.1382 
L 165.377914 273.689831 
L 168.805113 277.494934 
L 172.381734 281.159942 
L 176.102055 284.678992 
L 176.911193 285.408 
L 180.661314 281.920724 
L 184.268981 278.286272 
L 187.728424 274.51046 
L 191.034107 270.599327 
L 194.180742 266.55913 
L 197.163295 262.396333 
L 199.976995 258.117596 
L 202.617341 253.729763 
L 205.080108 249.239854 
L 207.361357 244.655053 
L 209.457438 239.982693 
L 211.364997 235.23025 
L 213.080984 230.405326 
L 214.602653 225.51564 
L 215.700238 221.476887 
L 213.01076 225.834777 
L 210.497702 230.296732 
L 208.165084 234.855614 
L 206.016639 239.504128 
L 204.055804 244.234839 
L 202.285715 249.040179 
L 200.709205 253.912459 
L 199.328794 258.843886 
L 198.146693 263.826569 
L 197.164791 268.852539 
L 196.38466 273.913754 
L 195.807547 279.002117 
L 195.434376 284.109489 
L 195.372184 285.408 
L 195.343206 284.768491 
L 194.996361 279.659264 
L 194.44548 274.567994 
L 193.691443 269.502825 
L 192.735456 264.471862 
L 191.579049 259.483153 
L 190.224071 254.544677 
L 188.672692 249.664337 
L 186.927391 244.849939 
L 184.990962 240.109185 
L 182.866503 235.44966 
L 180.557411 230.878818 
L 178.067382 226.403971 
L 175.400398 222.032278 
L 172.560727 217.770733 
L 169.55291 213.626153 
L 166.381761 209.605169 
L 163.052351 205.714213 
L 159.570008 201.959511 
L 155.940303 198.347069 
L 152.169041 194.882666 
L 148.262258 191.571844 
L 144.226201 188.4199 
L 140.067329 185.431876 
L 135.792294 182.612553 
L 131.407937 179.966442 
L 126.921269 177.497774 
L 122.339471 175.2105 
L 117.669871 173.108278 
L 112.919939 171.194472 
L 110.554784 170.322616 
L 114.524227 173.558049 
L 118.619878 176.632158 
L 122.835184 179.540026 
L 127.163402 182.277 
L 131.597608 184.838703 
L 136.130707 187.221036 
L 140.755449 189.420187 
L 145.464434 191.432639 
L 150.250129 193.255172 
L 155.104877 194.884871 
L 160.020913 196.319128 
L 164.990372 197.555648 
L 170.005303 198.592454 
L 175.057684 199.427887 
L 180.139432 200.060611 
L 185.242417 200.489612 
L 190.358476 200.714206 
L 192.165795 200.744594 
L 189.863803 205.319016 
L 187.746581 209.981834 
L 185.817515 214.725589 
L 184.079692 219.542691 
L 182.535891 224.425434 
L 181.188584 229.366007 
L 180.039924 234.356506 
L 179.091749 239.388948 
L 178.345577 244.455281 
L 177.802601 249.5474 
L 177.46369 254.657159 
L 177.329386 259.776384 
L 177.399904 264.896885 
L 177.67513 270.01047 
L 178.154626 275.108959 
L 178.837623 280.184194 
L 179.758473 285.408 
L 180.651103 280.36541 
L 181.34137 275.291158 
L 181.828168 270.193361 
L 182.110719 265.080176 
L 182.188572 259.959781 
L 182.061601 254.840369 
L 181.730009 249.73013 
L 181.194328 244.637238 
L 180.455414 239.569841 
L 179.514449 234.536047 
L 178.372939 229.543907 
L 177.03271 224.601409 
L 175.495905 219.716459 
L 173.764984 214.896873 
L 171.842715 210.15036 
L 169.732174 205.484514 
L 167.436737 200.9068 
L 164.960077 196.42454 
L 162.306154 192.044905 
L 159.479217 187.774902 
L 156.483785 183.621362 
L 153.324653 179.59093 
L 150.006873 175.690053 
L 146.535754 171.924973 
L 142.916848 168.301712 
L 139.155945 164.826066 
L 135.259061 161.503597 
L 131.232432 158.339619 
L 127.082498 155.339195 
L 122.815898 152.507123 
L 121.364959 151.598843 
L 122.494894 152.200909 
L 127.073134 154.495299 
L 131.739463 156.604772 
L 136.486415 158.525954 
L 141.306398 160.255772 
L 146.191699 161.791459 
L 151.134504 163.130557 
L 156.126904 164.270925 
L 161.160914 165.210738 
L 166.228479 165.948492 
L 171.321494 166.483008 
L 176.431809 166.81343 
L 181.55125 166.939229 
L 185.518608 166.895876 
L 180.634878 165.355201 
L 175.693443 164.011057 
L 170.70221 162.865592 
L 165.669162 161.920639 
L 160.602353 161.17771 
L 155.509887 160.637995 
L 150.399911 160.302355 
L 145.280602 160.171328 
L 140.160147 160.245123 
L 135.046739 160.523624 
L 129.948558 161.006383 
L 124.873761 161.692629 
L 119.830466 162.581263 
L 114.325443 163.791643 
L 115.864024 168.676034 
L 117.596697 173.49499 
L 119.520692 178.240804 
L 121.63293 182.905882 
L 123.930031 187.482762 
L 126.408321 191.964121 
L 129.063836 196.34279 
L 131.892326 200.611765 
L 134.889268 204.764215 
L 138.049865 208.793498 
L 141.369063 212.693168 
L 144.841552 216.456986 
L 148.461775 220.078931 
L 152.223942 223.553209 
L 156.122033 226.874261 
L 160.149813 230.036774 
L 164.300838 233.035689 
L 168.568467 235.866209 
L 172.945873 238.523805 
L 177.426053 241.004226 
L 182.00184 243.303504 
L 186.665914 245.417959 
L 191.410812 247.34421 
L 196.228944 249.079175 
L 201.112603 250.620078 
L 206.053974 251.964454 
L 211.045154 253.110153 
L 216.078157 254.055341 
L 221.144932 254.798507 
L 226.237373 255.338462 
L 231.347332 255.674341 
L 236.466636 255.805607 
L 241.587094 255.732052 
L 246.700515 255.453791 
L 251.798718 254.971271 
L 256.873548 254.285262 
L 261.916885 253.396864 
L 266.920661 252.307496 
L 271.876872 251.018902 
L 276.777589 249.533143 
L 281.614971 247.852597 
L 286.38128 245.979951 
L 291.06889 243.918201 
L 295.670303 241.670646 
L 300.178156 239.240881 
L 304.58524 236.632794 
L 308.884502 233.850557 
L 313.069066 230.898621 
L 317.132236 227.781708 
L 321.067514 224.504804 
L 324.868602 221.073153 
L 328.52942 217.492244 
L 332.044112 213.767805 
L 335.407054 209.905795 
L 338.612868 205.912393 
L 341.656423 201.793986 
L 344.532852 197.557165 
L 347.237552 193.208705 
L 349.766197 188.755565 
L 352.114741 184.204868 
L 354.279427 179.563895 
L 356.256792 174.840069 
L 358.043673 170.040948 
L 359.342397 166.12617 
L 354.322863 165.111885 
L 349.266783 164.299139 
L 344.182246 163.689232 
L 339.077386 163.28314 
L 333.960371 163.081513 
L 328.839385 163.084673 
L 323.722622 163.292616 
L 318.618268 163.705008 
L 313.534488 164.32119 
L 308.479415 165.140176 
L 303.461136 166.160656 
L 298.487679 167.380997 
L 293.567002 168.799248 
L 288.706975 170.413138 
L 287.247465 170.940412 
L 292.273843 171.920221 
L 297.335383 172.698245 
L 302.423986 173.273239 
L 307.531512 173.644282 
L 312.649791 173.810783 
L 317.770635 173.772474 
L 322.88585 173.529416 
L 327.987253 173.081999 
L 333.066684 172.430938 
L 338.116017 171.577274 
L 343.127173 170.522374 
L 348.092137 169.267925 
L 353.002964 167.815934 
L 357.851799 166.168723 
L 359.101415 165.708777 
L 355.215573 169.044154 
L 351.466219 172.532254 
L 347.859351 176.167499 
L 344.400739 179.944072 
L 341.095916 183.855931 
L 337.950169 187.89682 
L 334.968531 192.060272 
L 332.155771 196.339628 
L 329.51639 200.728041 
L 327.05461 205.218491 
L 324.774369 209.803794 
L 322.679316 214.476615 
L 320.772801 219.229477 
L 319.057875 224.054778 
L 317.537281 228.944799 
L 316.213453 233.891715 
L 315.088507 238.887613 
L 314.164244 243.924501 
L 313.442141 248.99432 
L 312.923355 254.088961 
L 312.608716 259.200272 
L 312.499359 264.064351 
L 308.125785 266.728248 
L 303.862237 269.564912 
L 299.715535 272.569802 
L 295.692314 275.738113 
L 291.79901 279.064775 
L 288.041851 282.544467 
L 285.164152 285.408 
L 281.519202 281.81094 
L 277.733323 278.362517 
L 273.812572 275.068246 
L 269.763222 271.933399 
L 265.591751 268.962991 
L 261.304832 266.161772 
L 256.909322 263.534226 
L 252.412255 261.084554 
L 247.820825 258.816677 
L 243.142376 256.734222 
L 238.384393 254.840521 
L 233.554489 253.138604 
L 228.660389 251.631192 
L 223.709924 250.320698 
L 218.711012 249.209218 
L 213.671652 248.29853 
L 208.599906 247.590091 
L 203.503886 247.085035 
L 198.391745 246.784169 
L 193.271662 246.687974 
L 188.151828 246.796606 
L 183.040433 247.109889 
L 177.945655 247.627323 
L 172.875644 248.34808 
L 167.838511 249.271007 
L 162.842315 250.394627 
L 157.895048 251.717143 
L 153.478668 253.079733 
L 157.226047 249.58951 
L 160.830857 245.952224 
L 164.28733 242.173693 
L 167.589938 238.259963 
L 170.733397 234.217295 
L 173.712677 230.052155 
L 176.523013 225.771207 
L 179.159909 221.381301 
L 181.619147 216.889458 
L 183.896791 212.302864 
L 185.989199 207.628858 
L 187.893022 202.874917 
L 189.605216 198.048646 
L 190.025171 196.762599 
L 185.201183 195.043983 
L 180.312327 193.51965 
L 175.366425 192.192038 
L 170.371389 191.063271 
L 165.335209 190.135156 
L 160.265944 189.409176 
L 155.171701 188.886493 
L 150.060632 188.567944 
L 144.940913 188.454038 
L 139.820733 188.544957 
L 134.708285 188.840556 
L 129.611748 189.340363 
L 124.539274 190.043576 
L 119.498978 190.949072 
L 117.809775 191.299398 
L 121.166519 187.431999 
L 124.365923 183.43346 
L 127.402869 179.310177 
L 130.272499 175.068747 
L 132.970221 170.715955 
L 135.49172 166.258765 
L 137.832962 161.704307 
L 139.990201 157.059867 
L 141.959987 152.332876 
L 143.739168 147.530895 
L 145.324898 142.661608 
L 146.714639 137.732803 
L 147.90617 132.752365 
L 148.897583 127.728263 
L 149.687293 122.668534 
L 150.274035 117.581272 
L 150.656872 112.474616 
L 150.835192 107.356735 
L 150.808707 102.235817 
L 150.760247 100.684711 
L 155.238764 98.201287 
L 159.614388 95.540758 
L 163.880119 92.707378 
L 168.029132 89.705681 
L 172.054792 86.540468 
L 175.950656 83.216804 
L 179.710493 79.740006 
L 183.328288 76.115635 
L 186.798252 72.34949 
L 190.114836 68.447596 
L 193.272732 64.416195 
L 193.845581 63.648 
L 196.973215 67.702923 
L 200.260502 71.629531 
L 203.702182 75.421541 
L 207.292749 79.072888 
L 211.026459 82.577729 
L 214.897338 85.930459 
L 218.899194 89.125712 
L 223.025626 92.158379 
L 227.270031 95.023606 
L 231.625619 97.71681 
L 236.085423 100.233684 
L 240.642308 102.570199 
L 245.288984 104.722618 
L 250.018016 106.687499 
L 254.82184 108.461697 
L 259.69277 110.042373 
L 264.623014 111.427001 
L 269.604685 112.613363 
L 274.629813 113.599563 
L 279.690359 114.384023 
L 284.778227 114.965487 
L 289.885278 115.343025 
L 295.003341 115.516034 
L 300.124229 115.484237 
L 305.239749 115.247684 
L 310.341717 114.806755 
L 315.421972 114.162153 
L 320.472386 113.314912 
L 325.48488 112.266385 
L 327.909826 111.683361 
L 324.421832 115.432814 
L 321.086566 119.31875 
L 317.909364 123.334953 
L 314.895308 127.474998 
L 312.049221 131.732262 
L 309.375656 136.099933 
L 306.87889 140.571024 
L 304.562916 145.138383 
L 302.431441 149.794703 
L 300.487874 154.532535 
L 298.735324 159.344299 
L 297.176596 164.222297 
L 295.814182 169.158726 
L 294.650262 174.145688 
L 293.686699 179.175206 
L 292.925034 184.239233 
L 292.366485 189.329667 
L 292.011945 194.438366 
L 291.861983 199.557156 
L 291.916838 204.677849 
L 292.176422 209.792252 
L 292.64032 214.892183 
L 293.307789 219.969484 
L 294.177763 225.016033 
L 295.248849 230.023754 
L 296.519334 234.984638 
L 297.987184 239.890748 
L 299.650053 244.734236 
L 301.50528 249.507352 
L 303.549896 254.202461 
L 305.780631 258.812051 
L 308.193916 263.328748 
L 310.574037 267.399107 
L 305.45309 267.378916 
L 300.335432 267.563523 
L 295.22925 267.952635 
L 290.142713 268.545628 
L 285.083958 269.341554 
L 280.061078 270.33914 
L 275.082108 271.53679 
L 270.155015 272.932587 
L 265.287679 274.524298 
L 260.487888 276.309379 
L 255.763321 278.284971 
L 251.121536 280.447916 
L 246.569958 282.794752 
L 241.970865 285.408 
L 237.520111 282.875159 
L 232.97163 280.522326 
L 228.332699 278.353266 
L 223.610739 276.371449 
L 218.813305 274.580045 
L 213.948072 272.98192 
L 209.022822 271.579631 
L 204.045435 270.375421 
L 199.023874 269.371216 
L 193.966172 268.568624 
L 188.88042 267.968928 
L 183.774756 267.573088 
L 178.657346 267.381736 
L 173.536377 267.395179 
L 168.420042 267.613396 
L 163.316526 268.036036 
L 162.183976 268.157768 
L 165.139077 263.975439 
L 167.924566 259.678282 
L 170.535987 255.273173 
L 172.969161 250.767159 
L 175.220196 246.167448 
L 177.285491 241.481399 
L 179.161743 236.716508 
L 180.845949 231.880399 
L 182.335414 226.980808 
L 183.627757 222.025573 
L 184.72091 217.022622 
L 185.613124 211.979958 
L 186.302971 206.905649 
L 186.789348 201.807812 
L 187.071477 196.694603 
L 187.148906 191.574202 
L 187.117134 189.279177 
L 184.304117 184.99999 
L 181.322228 180.836718 
L 178.176237 176.796019 
L 174.871178 172.884359 
L 171.412338 169.107994 
L 167.805251 165.472967 
L 164.055686 161.985093 
L 160.169643 158.649951 
L 156.153338 155.472877 
L 152.013197 152.458954 
L 147.755843 149.613003 
L 143.388086 146.939578 
L 138.916915 144.442954 
L 134.349482 142.127127 
L 129.693094 139.995801 
L 128.386275 139.437568 
L 132.527065 142.450599 
L 136.785032 145.295633 
L 141.153365 147.968118 
L 145.625074 150.463778 
L 150.193005 152.778621 
L 154.849853 154.908945 
L 159.588165 156.85134 
L 164.400362 158.602699 
L 169.278746 160.160221 
L 174.215512 161.521413 
L 179.202762 162.684099 
L 184.232517 163.646418 
L 186.052423 163.943549 
L 185.433644 163.779464 
L 180.455458 162.578561 
L 175.433231 161.577693 
L 170.374997 160.778461 
L 165.288849 160.182143 
L 160.182922 159.789695 
L 155.065386 159.601743 
L 149.944427 159.618588 
L 144.828238 159.840203 
L 139.725004 160.266234 
L 134.642889 160.895999 
L 129.590022 161.728491 
L 124.574488 162.762378 
L 119.604311 163.996006 
L 114.687441 165.427401 
L 113.084782 165.940531 
L 114.238115 170.929952 
L 115.590049 175.869262 
L 117.138422 180.750557 
L 118.880756 185.566029 
L 120.814264 190.307975 
L 122.935852 194.968808 
L 125.242127 199.541072 
L 127.729399 204.017452 
L 130.393689 208.390788 
L 133.230734 212.654081 
L 136.235997 216.800514 
L 139.404669 220.823451 
L 142.73168 224.716457 
L 146.211709 228.473304 
L 149.839188 232.087981 
L 153.608315 235.554708 
L 157.513058 238.867936 
L 161.547172 242.022366 
L 165.704202 245.012951 
L 169.977499 247.834907 
L 174.360226 250.483719 
L 178.845371 252.955151 
L 183.42576 255.245248 
L 188.094064 257.350346 
L 192.842815 259.267078 
L 197.664417 260.992377 
L 202.551156 262.523483 
L 207.495213 263.857948 
L 212.488681 264.993635 
L 217.523569 265.928729 
L 222.591824 266.661733 
L 227.685337 267.191474 
L 232.79596 267.517105 
L 237.915517 267.638106 
L 243.035817 267.554282 
L 248.14867 267.265767 
L 253.245895 266.773024 
L 258.319339 266.076841 
L 263.360884 265.17833 
L 268.362466 264.078931 
L 273.316083 262.7804 
L 278.21381 261.284817 
L 283.047813 259.594573 
L 287.810356 257.712372 
L 292.493823 255.641227 
L 297.090719 253.384449 
L 301.593691 250.945649 
L 305.995535 248.32873 
L 310.28921 245.537877 
L 314.467846 242.577555 
L 318.524757 239.4525 
L 322.453455 236.167711 
L 326.247654 232.728444 
L 329.901284 229.140201 
L 333.4085 225.408722 
L 336.763691 221.539976 
L 337.726102 220.370351 
L 339.45608 215.550426 
L 340.991929 210.665176 
L 342.331191 205.722416 
L 343.471724 200.730053 
L 344.411704 195.696074 
L 345.149627 190.628533 
L 345.684311 185.535537 
L 346.014903 180.425232 
L 346.140872 175.305795 
L 346.062018 170.185416 
L 345.778466 165.072286 
L 345.29067 159.974585 
L 344.599411 154.900468 
L 343.705794 149.858053 
L 342.611249 144.855406 
L 341.317527 139.900531 
L 339.826698 135.001355 
L 338.141147 130.165714 
L 337.282503 127.917314 
L 334.01097 123.977571 
L 330.584506 120.171806 
L 327.008592 116.506108 
L 323.28895 112.98634 
L 319.43153 109.618134 
L 315.442504 106.406877 
L 311.328252 103.357708 
L 307.095357 100.475504 
L 302.75059 97.764876 
L 298.300903 95.23016 
L 293.753413 92.875412 
L 289.115396 90.704399 
L 284.394271 88.720593 
L 279.597592 86.927169 
L 274.733032 85.326996 
L 269.808373 83.922633 
L 264.831493 82.716327 
L 259.810356 81.710008 
L 254.752992 80.905286 
L 249.667494 80.303448 
L 244.561996 79.905458 
L 239.444667 79.711951 
L 234.323693 79.723238 
L 229.207267 79.9393 
L 224.103573 80.359791 
L 219.020777 80.98404 
L 213.96701 81.811046 
L 208.950357 82.839489 
L 203.978843 84.067721 
L 199.060423 85.493778 
L 194.202963 87.115379 
L 189.414236 88.929929 
L 184.701902 90.934526 
L 180.073499 93.125962 
L 175.536433 95.500733 
L 171.097962 98.055037 
L 166.765186 100.784791 
L 162.545037 103.685625 
L 158.444265 106.752901 
L 154.469433 109.98171 
L 150.626897 113.366887 
L 146.922807 116.903016 
L 143.363086 120.584442 
L 139.953431 124.405273 
L 136.699295 128.359398 
L 133.605886 132.440491 
L 130.678151 136.642023 
L 127.920774 140.957272 
L 125.338167 145.379335 
L 122.934461 149.901138 
L 120.713502 154.515446 
L 118.678842 159.214878 
L 116.833737 163.991916 
L 115.181138 168.838917 
L 113.72369 173.748127 
L 112.463723 178.711693 
L 111.929129 181.113819 
L 116.830048 182.598908 
L 121.786435 183.886825 
L 126.790361 184.975509 
L 131.833819 185.863219 
L 136.908742 186.548534 
L 142.007011 187.030358 
L 147.12047 187.30792 
L 152.240938 187.380776 
L 157.360224 187.24881 
L 162.470138 186.912233 
L 167.562505 186.371583 
L 172.629178 185.627725 
L 177.662052 184.681849 
L 182.653075 183.535468 
L 185.611932 182.75556 
L 180.504597 183.129221 
L 175.416289 183.706823 
L 170.355149 184.487441 
L 165.329274 185.469826 
L 160.346703 186.652407 
L 155.415409 188.033291 
L 150.543281 189.61027 
L 145.738111 191.380821 
L 141.007589 193.342111 
L 136.359281 195.491002 
L 131.800624 197.824058 
L 127.338911 200.337545 
L 124.150533 202.281913 
L 125.28021 201.679362 
L 129.736975 199.157111 
L 134.089312 196.458656 
L 138.330258 193.588311 
L 142.453029 190.550671 
L 146.451029 187.350593 
L 150.317862 183.993197 
L 154.047342 180.483855 
L 157.633502 176.82818 
L 161.070606 173.032022 
L 164.353154 169.101452 
L 167.475896 165.04276 
L 170.433836 160.862438 
L 173.222242 156.567173 
L 175.836652 152.163838 
L 178.272885 147.659477 
L 180.527042 143.061295 
L 182.595518 138.376649 
L 184.475004 133.613033 
L 186.162493 128.778068 
L 187.655284 123.87949 
L 188.950991 118.925133 
L 190.04754 113.922926 
L 190.943177 108.880869 
L 191.636469 103.807029 
L 192.126306 98.709524 
L 192.411907 93.596508 
L 192.492812 88.47616 
L 192.368894 83.356673 
L 192.04035 78.246237 
L 191.507706 73.153027 
L 190.771813 68.08519 
L 189.956033 63.648 
L 189.042048 68.686763 
L 188.330291 73.758045 
L 187.8219 78.853734 
L 187.517689 83.965676 
L 187.418145 89.085695 
L 187.523426 94.205599 
L 187.833365 99.317198 
L 188.347465 104.412313 
L 189.064905 109.482795 
L 189.984535 114.520531 
L 191.104886 119.517461 
L 192.424165 124.465593 
L 193.94026 129.357009 
L 195.650748 134.183886 
L 197.552891 138.9385 
L 198.114575 140.244688 
L 193.204111 138.791469 
L 188.239461 137.535778 
L 183.228569 136.479625 
L 178.17945 135.624698 
L 173.100182 134.972367 
L 167.99889 134.523673 
L 162.883736 134.279336 
L 157.762903 134.239746 
L 152.644582 134.404967 
L 147.536963 134.774733 
L 142.448216 135.348454 
L 137.386482 136.125212 
L 132.359859 137.103764 
L 129.335136 137.794092 
L 130.883174 142.675493 
L 132.625178 147.491085 
L 134.55836 152.233163 
L 136.679629 156.894142 
L 138.985591 161.466564 
L 141.472556 165.943115 
L 144.136546 170.316633 
L 146.973299 174.580121 
L 149.978277 178.726759 
L 153.146673 182.749914 
L 156.473417 186.643148 
L 159.953189 190.400233 
L 163.58042 194.01516 
L 167.349308 197.482144 
L 171.253825 200.79564 
L 175.287722 203.950347 
L 179.444547 206.941217 
L 183.717651 209.763466 
L 188.100196 212.412579 
L 192.585172 214.884318 
L 197.165403 217.174729 
L 201.833563 219.280147 
L 206.582183 221.197205 
L 211.403667 222.922835 
L 216.2903 224.454276 
L 221.234266 225.78908 
L 226.227656 226.92511 
L 231.26248 227.860549 
L 236.330685 228.5939 
L 241.424161 229.12399 
L 246.534762 229.449972 
L 251.65431 229.571324 
L 256.774616 229.487851 
L 261.887489 229.199687 
L 266.984748 228.707294 
L 272.058239 228.011458 
L 277.099846 227.113293 
L 282.101504 226.014236 
L 287.05521 224.716046 
L 291.953039 223.220798 
L 296.787158 221.530886 
L 301.54983 219.649012 
L 306.233439 217.578187 
L 310.83049 215.321725 
L 315.333629 212.883234 
L 319.735653 210.266616 
L 324.029519 207.476058 
L 328.208357 204.516022 
L 332.265484 201.391246 
L 336.194407 198.106727 
L 339.988841 194.66772 
L 343.642717 191.079727 
L 347.150189 187.348488 
L 350.505646 183.479973 
L 353.703719 179.480369 
L 356.739292 175.356075 
L 359.60751 171.113691 
L 360.975092 168.95408 
L 355.860746 169.214785 
L 350.760916 169.679801 
L 345.683761 170.348384 
L 340.637404 171.219463 
L 335.629917 172.291647 
L 330.669312 173.563219 
L 325.763524 175.032145 
L 320.920401 176.696075 
L 316.147692 178.552348 
L 311.453031 180.597993 
L 306.84393 182.829739 
L 302.327761 185.244014 
L 297.911751 187.836956 
L 293.602962 190.604418 
L 289.408289 193.541971 
L 285.334443 196.644918 
L 281.387939 199.908292 
L 279.8423 201.261061 
L 278.652137 206.241826 
L 277.662104 211.2662 
L 276.873784 216.326146 
L 276.288438 221.413569 
L 275.907003 226.52033 
L 275.73009 231.63826 
L 275.75798 236.75917 
L 275.99063 241.874869 
L 276.427667 246.977172 
L 277.068393 252.057918 
L 277.911781 257.108977 
L 278.956484 262.122269 
L 280.200829 267.089774 
L 281.642825 272.003545 
L 283.280167 276.855722 
L 285.110235 281.63854 
L 286.710334 285.408 
L 288.69242 280.686153 
L 290.484097 275.888821 
L 292.082498 271.023678 
L 293.485067 266.098508 
L 294.689559 261.121189 
L 295.694049 256.099685 
L 296.496928 251.042029 
L 297.096913 245.956312 
L 297.493044 240.850669 
L 297.684687 235.73327 
L 297.671534 230.612301 
L 297.453609 225.495953 
L 297.031258 220.392413 
L 296.405158 215.309845 
L 295.57631 210.256379 
L 294.54604 205.240101 
L 293.315997 200.269035 
L 291.888148 195.351135 
L 290.264778 190.494266 
L 288.448483 185.7062 
L 286.841196 181.891169 
L 290.074965 177.920371 
L 293.147358 173.823433 
L 296.05346 169.606909 
L 298.788621 165.277545 
L 301.348466 160.842266 
L 303.7289 156.308169 
L 305.926114 151.682506 
L 307.936593 146.972679 
L 309.757121 142.186221 
L 311.384786 137.33079 
L 312.816983 132.414154 
L 314.051422 127.444178 
L 315.086127 122.428812 
L 315.919443 117.376082 
L 316.550038 112.294069 
L 316.976901 107.190905 
L 317.199352 102.074752 
L 317.217032 96.953796 
L 317.087553 92.938634 
L 312.725871 90.255309 
L 308.260374 87.748552 
L 303.698205 85.422371 
L 299.046663 83.28049 
L 294.313189 81.326334 
L 289.505356 79.563029 
L 284.630855 77.993397 
L 279.697485 76.619949 
L 274.713137 75.444881 
L 269.685787 74.470074 
L 264.623476 73.697087 
L 259.534303 73.127157 
L 254.42641 72.761195 
L 249.307968 72.599788 
L 244.187165 72.643192 
L 239.072194 72.89134 
L 233.971238 73.343833 
L 228.892458 73.999948 
L 223.843977 74.858635 
L 218.833873 75.918521 
L 213.87016 77.17791 
L 208.96078 78.634787 
L 204.113587 80.286821 
L 199.336334 82.13137 
L 194.636665 84.165483 
L 190.022099 86.385905 
L 185.500016 88.789084 
L 181.077652 91.371177 
L 176.762082 94.128051 
L 172.56021 97.055297 
L 168.478757 100.148232 
L 164.524253 103.401907 
L 160.703025 106.811117 
L 157.021185 110.370409 
L 153.484624 114.074088 
L 150.099 117.916229 
L 146.869728 121.890686 
L 143.801976 125.9911 
L 140.90065 130.210912 
L 138.170392 134.54337 
L 135.61557 138.981544 
L 133.240272 143.518334 
L 131.048297 148.146481 
L 129.043151 152.858582 
L 127.228044 157.647098 
L 125.605877 162.504368 
L 124.179248 167.422623 
L 122.950437 172.393994 
L 121.921411 177.410527 
L 121.093816 182.464198 
L 120.468976 187.546921 
L 120.04789 192.650566 
L 119.924601 194.962384 
L 124.514726 197.232902 
L 129.191977 199.318048 
L 133.948869 201.214486 
L 138.777794 202.919181 
L 143.671025 204.429408 
L 148.620736 205.74275 
L 153.619007 206.857106 
L 158.657842 207.770693 
L 163.729181 208.482049 
L 168.824909 208.990037 
L 173.936876 209.293843 
L 179.056903 209.392983 
L 184.176798 209.287297 
L 189.288372 208.976954 
L 194.383447 208.462451 
L 197.445332 208.053727 
L 196.088399 212.991665 
L 194.930015 217.979916 
L 193.972035 223.0105 
L 193.21599 228.07537 
L 192.663092 233.166421 
L 192.314223 238.27551 
L 192.169942 243.394464 
L 192.230481 248.515092 
L 192.495741 253.629204 
L 192.9653 258.728617 
L 193.638404 263.805174 
L 194.513979 268.850754 
L 195.590622 273.857284 
L 196.866612 278.816754 
L 198.339908 283.721232 
L 198.896562 285.408 
L 200.437755 280.524433 
L 201.782425 275.583141 
L 202.928421 270.59203 
L 203.873908 265.559083 
L 204.617375 260.492352 
L 205.157632 255.399944 
L 205.493815 250.290004 
L 205.625386 245.170708 
L 205.552135 240.050246 
L 205.274178 234.936808 
L 204.79196 229.838576 
L 204.106254 224.763706 
L 203.218155 219.720316 
L 202.129085 214.716475 
L 201.512318 212.241897 
L 196.448474 211.479019 
L 191.358173 210.919251 
L 186.24956 210.563488 
L 181.130805 210.4123 
L 176.0101 210.465929 
L 170.895635 210.724288 
L 165.795592 211.186964 
L 160.718132 211.853218 
L 155.671375 212.721983 
L 150.663397 213.79187 
L 145.702209 215.061166 
L 140.795748 216.527842 
L 135.951862 218.189551 
L 133.801363 218.997641 
L 137.722126 215.703385 
L 141.508017 212.254975 
L 145.152981 208.657929 
L 148.651185 204.918 
L 151.997034 201.041172 
L 155.185175 197.033647 
L 158.210508 192.901835 
L 161.068192 188.652348 
L 163.753656 184.291983 
L 166.262604 179.827715 
L 168.591022 175.266688 
L 170.735185 170.616197 
L 172.691663 165.883682 
L 174.457326 161.076715 
L 176.029349 156.202984 
L 177.405217 151.270289 
L 178.58273 146.286518 
L 179.560003 141.259647 
L 180.335473 136.197715 
L 180.907899 131.108823 
L 181.276366 126.001109 
L 181.440285 120.882747 
L 181.399392 115.761924 
L 181.153754 110.646832 
L 180.703763 105.545655 
L 180.05014 100.466553 
L 179.193929 95.417651 
L 178.136501 90.407028 
L 176.879547 85.442698 
L 175.425079 80.532604 
L 173.775423 75.684601 
L 171.933217 70.906444 
L 170.237587 66.948969 
L 175.32052 66.325837 
L 180.374468 65.49994 
L 185.391347 64.4726 
L 188.82377 63.648 
L 193.810419 64.81326 
L 198.839678 65.778175 
L 203.9035 66.541202 
L 208.993784 67.101119 
L 214.102387 67.457031 
L 219.221137 67.608369 
L 224.341844 67.554891 
L 229.456317 67.296682 
L 234.556373 66.834154 
L 239.633853 66.168049 
L 244.680635 65.299432 
L 249.688644 64.229692 
L 252.065647 63.648 
L 257.052296 64.81326 
L 262.081555 65.778175 
L 267.145377 66.541202 
L 272.235661 67.101119 
L 277.344265 67.457031 
L 282.463014 67.608369 
L 287.583721 67.554891 
L 292.698194 67.296682 
L 297.79825 66.834154 
L 301.728859 66.336595 
L 298.650178 70.42881 
L 295.737606 74.640867 
L 292.9958 78.966026 
L 290.429148 83.397369 
L 288.041755 87.927806 
L 285.837441 92.550089 
L 283.819732 97.256824 
L 281.991857 102.040481 
L 280.356738 106.893407 
L 278.916993 111.807838 
L 277.674925 116.775913 
L 276.63252 121.789683 
L 275.791446 126.841128 
L 275.153049 131.922167 
L 274.71835 137.02467 
L 274.535295 140.614335 
L 279.645007 140.953959 
L 284.764213 141.088977 
L 289.884723 141.019173 
L 294.998347 140.744659 
L 300.096902 140.265874 
L 305.172233 139.583585 
L 310.21622 138.698882 
L 315.220793 137.613181 
L 320.177947 136.328219 
L 325.079751 134.846052 
L 329.918363 133.16905 
L 334.686043 131.299897 
L 338.324598 129.722274 
L 337.805481 130.09688 
L 333.721289 133.186196 
L 329.763903 136.436366 
L 325.939655 139.842189 
L 322.254663 143.398216 
L 318.714821 147.09876 
L 315.325794 150.9379 
L 312.093001 154.909493 
L 309.021616 159.007187 
L 306.116552 163.224426 
L 303.382456 167.554463 
L 300.823703 171.990371 
L 298.444385 176.525054 
L 296.248309 181.151257 
L 294.238989 185.861579 
L 292.419639 190.648485 
L 290.793169 195.504316 
L 289.362181 200.421305 
L 288.128965 205.391585 
L 287.095494 210.407204 
L 286.263421 215.460139 
L 285.634077 220.542307 
L 285.208469 225.645577 
L 284.987278 230.761784 
L 284.970857 235.882744 
L 285.159233 241.000264 
L 285.552105 246.106158 
L 286.148844 251.192258 
L 286.948495 256.250425 
L 287.949779 261.272569 
L 289.151095 266.250656 
L 290.55052 271.17672 
L 292.145815 276.042882 
L 293.93443 280.841357 
L 295.844352 285.408 
L 297.817111 280.682249 
L 299.599313 275.881388 
L 301.188105 271.013099 
L 302.580947 266.085169 
L 303.77561 261.105482 
L 304.770184 256.082005 
L 305.563076 251.022773 
L 306.153018 245.935881 
L 306.539068 240.829467 
L 306.720606 235.711699 
L 306.697343 230.590766 
L 306.469316 225.474859 
L 306.03689 220.372163 
L 305.400756 215.29084 
L 304.561932 210.239021 
L 303.521761 205.224787 
L 302.281905 200.256159 
L 300.844349 195.341087 
L 299.211393 190.487433 
L 297.385648 185.702963 
L 295.370036 180.99533 
L 293.167782 176.372065 
L 290.782407 171.840565 
L 288.217729 167.40808 
L 286.372415 164.452623 
L 287.166567 159.393589 
L 287.757776 154.306845 
L 288.145097 149.200527 
L 288.32791 144.082804 
L 288.305922 138.961865 
L 288.079169 133.845901 
L 287.648013 128.743098 
L 287.013144 123.661617 
L 286.175578 118.609589 
L 285.136655 113.595096 
L 283.898037 108.62616 
L 282.461705 103.71073 
L 280.829957 98.85667 
L 279.005404 94.071745 
L 276.990964 89.36361 
L 274.78986 84.739797 
L 272.405614 80.207704 
L 269.84204 75.77458 
L 267.103238 71.447517 
L 264.193591 67.233439 
L 261.514172 63.648 
L 258.459002 67.757798 
L 255.570625 71.986483 
L 252.853659 76.32729 
L 250.312454 80.773274 
L 247.951072 85.317322 
L 245.773293 89.952167 
L 243.782601 94.670391 
L 241.982179 99.464449 
L 240.374909 104.326669 
L 238.963361 109.249273 
L 237.749794 114.224387 
L 236.73615 119.244051 
L 236.066077 123.314808 
L 235.196168 118.268249 
L 234.125145 113.260514 
L 232.854723 108.299613 
L 231.386934 103.393485 
L 229.724127 98.549976 
L 227.868961 93.776837 
L 225.824404 89.081702 
L 223.593727 84.472084 
L 221.180499 79.955356 
L 218.58858 75.538744 
L 215.822117 71.229314 
L 212.885536 67.03396 
L 210.326039 63.648 
L 207.252008 67.74371 
L 204.344221 71.959071 
L 201.607329 76.287342 
L 199.045711 80.721597 
L 196.663465 85.254742 
L 194.464402 89.879526 
L 192.45204 94.588549 
L 190.629599 99.374279 
L 188.999993 104.229059 
L 187.565831 109.145122 
L 186.329405 114.114604 
L 185.292695 119.129555 
L 184.457359 124.181952 
L 183.824733 129.263713 
L 183.395829 134.366706 
L 183.171333 139.482769 
L 183.151606 144.603718 
L 183.336677 149.721359 
L 183.726251 154.827506 
L 184.319705 159.913989 
L 185.116089 164.972672 
L 185.49904 167.026867 
L 185.49904 167.026867 
" style="fill:none;stroke:#1f77b4;stroke-linecap:square;stroke-width:1.5;"/>
   </g>
   <g id="patch_4">
    <path d="M 82.520165 307.584 
L 82.520165 41.472 
" style="fill:none;stroke:#000000;stroke-linecap:square;stroke-linejoin:miter;stroke-width:0.8;"/>
   </g>
   <g id="patch_5">
    <path d="M 389.799835 307.584 
L 389.799835 41.472 
" style="fill:none;stroke:#000000;stroke-linecap:square;stroke-linejoin:miter;stroke-width:0.8;"/>
   </g>
   <g id="patch_6">
    <path d="M 82.520165 307.584 
L 389.799835 307.584 
" style="fill:none;stroke:#000000;stroke-linecap:square;stroke-linejoin:miter;stroke-width:0.8;"/>
   </g>
   <g id="patch_7">
    <path d="M 82.520165 41.472 
L 389.799835 41.472 
" style="fill:none;stroke:#000000;stroke-linecap:square;stroke-linejoin:miter;stroke-width:0.8;"/>
   </g>
   <g id="PathCollection_1">
    <defs>
     <path d="M 0 2.236068 
C 0.593012 2.236068 1.161816 2.000462 1.581139 1.581139 
C 2.000462 1.161816 2.236068 0.593012 2.236068 0 
C 2.236068 -0.593012 2.000462 -1.161816 1.581139 -1.581139 
C 1.161816 -2.000462 0.593012 -2.236068 0 -2.236068 
C -0.593012 -2.236068 -1.161816 -2.000462 -1.581139 -1.581139 
C -2.000462 -1.161816 -2.236068 -0.593012 -2.236068 0 
C -2.236068 0.593012 -2.000462 1.161816 -1.581139 1.581139 
C -1.161816 2.000462 -0.593012 2.236068 0 2.236068 
z
" id="md0f9aa6a4f" style="stroke:#000000;"/>
    </defs>
    <g clip-path="url(#pf82c6d0dc8)">
     <use style="stroke:#000000;" x="185.49904" xlink:href="#md0f9aa6a4f" y="167.026867"/>
    </g>
   </g>
   <g id="Quiver_1">
    <path clip-path="url(#pf82c6d0dc8)" d="M 186.042305 167.314175 
L 182.881919 173.290095 
L 184.255758 173.321445 
L 179.752882 177.892177 
L 180.996165 171.597598 
L 181.795388 172.715479 
L 184.955774 166.739559 
L 186.042305 167.314175 
"/>
   </g>
  </g>
 </g>
 <defs>
  <clipPath id="pf82c6d0dc8">
   <rect height="266.112" width="307.27967" x="82.520165" y="41.472"/>
  </clipPath>
 </defs>
</svg>
